<?xml version="1.0" encoding="utf-8"?>
<!-- Generator: Adobe Illustrator 19.0.0, SVG Export Plug-In . SVG Version: 6.00 Build 0)  -->
<svg version="1.1" id="Layer_1" xmlns="http://www.w3.org/2000/svg" xmlns:xlink="http://www.w3.org/1999/xlink" x="0px" y="0px"
	 viewBox="0 0 140 140" style="enable-background:new 0 0 140 140;" xml:space="preserve">
<style type="text/css">
	.st0{fill:#3F3F3F;}
	.st1{fill:#F3E48F;}
	.st2{opacity:0.33;}
	.st3{fill:#DEA977;}
</style>
<g id="XMLID_693_">
	<circle id="XMLID_711_" class="st0" cx="643.8" cy="82.8" r="61.9"/>
	<circle id="XMLID_702_" class="st1" cx="641.5" cy="80.5" r="61.9"/>
	<g id="XMLID_198_" class="st2">
		<g id="XMLID_48_">
			<path id="XMLID_52_" d="M607.3,80.6l6.9-26.3h27.4l-1.2,7.6h-20.2l-3.7,12.6c2.4-1.4,5.1-2.1,8-2.1c4.4,0,7.8,1.7,10.2,4.9
				s3.4,7.4,2.9,12.5c-0.4,5.3-2.4,9.5-5.9,12.9c-3.5,3.3-7.8,5-13,4.9c-4.4-0.1-7.9-1.5-10.6-4.2c-2.7-2.7-4.2-6.3-4.3-10.7h8.2
				c0.2,2.4,0.9,4.4,2.1,5.7s2.9,2.1,5.1,2.1c2.7,0.1,4.9-0.9,6.7-2.9c1.8-2,2.9-4.7,3.3-8.1c0.3-3-0.2-5.4-1.5-7.2
				c-1.3-1.8-3.2-2.8-5.7-2.8c-1.5,0-2.9,0.2-4.1,0.7c-1.2,0.5-2.4,1.3-3.5,2.2L607.3,80.6z"/>
			<path id="XMLID_49_" d="M658.8,107.4c-4.5-0.1-8-1.7-10.3-4.7c-2.3-3-3.5-7.3-3.4-12.8c0-1.8,0.1-3.5,0.4-5.3l1.4-9.4
				c1.2-7.3,3.4-12.8,6.8-16.4c3.4-3.6,7.7-5.4,13-5.3c4.5,0.1,7.9,1.6,10.3,4.6c2.3,3,3.5,7.2,3.4,12.7c0,1.8-0.1,3.6-0.4,5.3
				l-1.4,9.1c-1.2,7.5-3.5,13.1-6.8,16.8C668.5,105.8,664.1,107.6,658.8,107.4z M671.7,74.8c0.3-2.7,0.5-4.7,0.5-5.8
				c-0.1-5.4-2.1-8.2-5.9-8.4c-2.9-0.1-5.3,0.9-7,3.2c-1.8,2.3-3,5.8-3.7,10.8L653.8,86c-0.3,2.5-0.4,4.4-0.4,5.9
				c0,5.6,2,8.5,5.9,8.7c5.4,0.3,8.9-3.9,10.5-12.7L671.7,74.8z"/>
		</g>
	</g>
</g>
<g id="XMLID_132_">
	<circle id="XMLID_642_" class="st0" cx="71.1" cy="71.1" r="55.7"/>
	<circle id="XMLID_275_" class="st3" cx="68.9" cy="68.9" r="55.7"/>
	<g id="XMLID_657_" class="st2">
		<g id="XMLID_29_">
			<path id="XMLID_30_" d="M57.6,69.4l6.1-23.7h23.8l-0.9,5.6H67.9l-3.7,13.1c2.4-1.4,5-2.1,7.8-2.1c4,0,7,1.5,9.1,4.5
				c2.1,2.9,3,6.7,2.6,11.2c-0.4,4.9-2.2,8.8-5.2,11.8c-3.1,3-6.9,4.4-11.5,4.3c-3.8,0-6.9-1.3-9.2-3.7c-2.3-2.4-3.6-5.6-3.7-9.6
				h5.5c0.2,2.6,0.9,4.7,2.2,6.1c1.3,1.4,3.1,2.2,5.4,2.2c2.8,0.1,5.2-0.9,7.1-3c1.9-2.1,3-4.8,3.4-8.2c0.3-3-0.2-5.4-1.5-7.3
				c-1.3-1.9-3.3-2.9-5.9-3c-1.6,0-3,0.2-4.3,0.7c-1.2,0.5-2.5,1.3-3.7,2.3L57.6,69.4z"/>
		</g>
	</g>
</g>
</svg>
