<?xml version="1.0" encoding="utf-8"?>
<!-- Generator: Adobe Illustrator 19.0.0, SVG Export Plug-In . SVG Version: 6.00 Build 0)  -->
<svg version="1.1" id="Layer_1" xmlns="http://www.w3.org/2000/svg" xmlns:xlink="http://www.w3.org/1999/xlink" x="0px" y="0px"
	 viewBox="0 0 140 140" style="enable-background:new 0 0 140 140;" xml:space="preserve">
<style type="text/css">
	.st0{fill:#3F3F3F;}
	.st1{fill:#F3E48F;}
	.st2{opacity:0.33;}
</style>
<g id="XMLID_693_">
	<circle id="XMLID_711_" class="st0" cx="643.8" cy="82.8" r="61.9"/>
	<circle id="XMLID_702_" class="st1" cx="641.5" cy="80.5" r="61.9"/>
	<g id="XMLID_198_" class="st2">
		<g id="XMLID_48_">
			<path id="XMLID_52_" d="M607.3,80.6l6.9-26.3h27.4l-1.2,7.6h-20.2l-3.7,12.6c2.4-1.4,5.1-2.1,8-2.1c4.4,0,7.8,1.7,10.2,4.9
				s3.4,7.4,2.9,12.5c-0.4,5.3-2.4,9.5-5.9,12.9c-3.5,3.3-7.8,5-13,4.9c-4.4-0.1-7.9-1.5-10.6-4.2c-2.7-2.7-4.2-6.3-4.3-10.7h8.2
				c0.2,2.4,0.9,4.4,2.1,5.7s2.9,2.1,5.1,2.1c2.7,0.1,4.9-0.9,6.7-2.9c1.8-2,2.9-4.7,3.3-8.1c0.3-3-0.2-5.4-1.5-7.2
				c-1.3-1.8-3.2-2.8-5.7-2.8c-1.5,0-2.9,0.2-4.1,0.7c-1.2,0.5-2.4,1.3-3.5,2.2L607.3,80.6z"/>
			<path id="XMLID_49_" d="M658.8,107.4c-4.5-0.1-8-1.7-10.3-4.7c-2.3-3-3.5-7.3-3.4-12.8c0-1.8,0.1-3.5,0.4-5.3l1.4-9.4
				c1.2-7.3,3.4-12.8,6.8-16.4c3.4-3.6,7.7-5.4,13-5.3c4.5,0.1,7.9,1.6,10.3,4.6c2.3,3,3.5,7.2,3.4,12.7c0,1.8-0.1,3.6-0.4,5.3
				l-1.4,9.1c-1.2,7.5-3.5,13.1-6.8,16.8C668.5,105.8,664.1,107.6,658.8,107.4z M671.7,74.8c0.3-2.7,0.5-4.7,0.5-5.8
				c-0.1-5.4-2.1-8.2-5.9-8.4c-2.9-0.1-5.3,0.9-7,3.2c-1.8,2.3-3,5.8-3.7,10.8L653.8,86c-0.3,2.5-0.4,4.4-0.4,5.9
				c0,5.6,2,8.5,5.9,8.7c5.4,0.3,8.9-3.9,10.5-12.7L671.7,74.8z"/>
		</g>
	</g>
</g>
<g id="XMLID_643_">
	<circle id="XMLID_677_" class="st0" cx="71.1" cy="71.1" r="50.2"/>
	<circle id="XMLID_676_" class="st1" cx="68.9" cy="68.9" r="50.2"/>
	<g id="XMLID_679_" class="st2">
		<g id="XMLID_55_">
			<path id="XMLID_59_" d="M55.6,89.1h-6.3l5.4-30.9L45,61.4l1-5.7l15.3-5.4h1L55.6,89.1z"/>
			<path id="XMLID_56_" d="M81.6,89.7c-3.3-0.1-5.9-1.2-7.6-3.5c-1.7-2.2-2.6-5.4-2.5-9.4c0-1.3,0.1-2.6,0.3-3.9l1-6.9
				c0.9-5.4,2.5-9.5,5-12.1s5.7-4,9.6-3.9c3.3,0.1,5.9,1.2,7.6,3.4c1.7,2.2,2.6,5.3,2.5,9.4c0,1.3-0.1,2.6-0.3,3.9l-1,6.7
				c-0.9,5.5-2.6,9.7-5,12.4C88.8,88.4,85.6,89.7,81.6,89.7z M91.2,65.5c0.2-2,0.3-3.5,0.3-4.3c-0.1-4-1.6-6.1-4.4-6.2
				c-2.2-0.1-3.9,0.7-5.2,2.4s-2.2,4.3-2.8,7.9l-1.2,8.4c-0.2,1.8-0.3,3.3-0.3,4.3c0,4.1,1.5,6.3,4.4,6.4c4,0.2,6.6-2.9,7.7-9.4
				L91.2,65.5z"/>
		</g>
	</g>
</g>
</svg>
