<?xml version="1.0" encoding="utf-8"?>
<!-- Generator: Adobe Illustrator 19.0.0, SVG Export Plug-In . SVG Version: 6.00 Build 0)  -->
<svg version="1.1" id="Layer_1" xmlns="http://www.w3.org/2000/svg" xmlns:xlink="http://www.w3.org/1999/xlink" x="0px" y="0px"
	 viewBox="0 0 140 140" style="enable-background:new 0 0 140 140;" xml:space="preserve">
<style type="text/css">
	.st0{fill:#3F3F3F;}
	.st1{fill:#F3E48F;}
	.st2{opacity:0.33;}
</style>
<g id="XMLID_693_">
	<circle id="XMLID_711_" class="st0" cx="643.8" cy="82.8" r="61.9"/>
	<circle id="XMLID_702_" class="st1" cx="641.5" cy="80.5" r="61.9"/>
	<g id="XMLID_198_" class="st2">
		<g id="XMLID_48_">
			<path id="XMLID_52_" d="M607.3,80.6l6.9-26.3h27.4l-1.2,7.6h-20.2l-3.7,12.6c2.4-1.4,5.1-2.1,8-2.1c4.4,0,7.8,1.7,10.2,4.9
				s3.4,7.4,2.9,12.5c-0.4,5.3-2.4,9.5-5.9,12.9c-3.5,3.3-7.8,5-13,4.9c-4.4-0.1-7.9-1.5-10.6-4.2c-2.7-2.7-4.2-6.3-4.3-10.7h8.2
				c0.2,2.4,0.9,4.4,2.1,5.7s2.9,2.1,5.1,2.1c2.7,0.1,4.9-0.9,6.7-2.9c1.8-2,2.9-4.7,3.3-8.1c0.3-3-0.2-5.4-1.5-7.2
				c-1.3-1.8-3.2-2.8-5.7-2.8c-1.5,0-2.9,0.2-4.1,0.7c-1.2,0.5-2.4,1.3-3.5,2.2L607.3,80.6z"/>
			<path id="XMLID_49_" d="M658.8,107.4c-4.5-0.1-8-1.7-10.3-4.7c-2.3-3-3.5-7.3-3.4-12.8c0-1.8,0.1-3.5,0.4-5.3l1.4-9.4
				c1.2-7.3,3.4-12.8,6.8-16.4c3.4-3.6,7.7-5.4,13-5.3c4.5,0.1,7.9,1.6,10.3,4.6c2.3,3,3.5,7.2,3.4,12.7c0,1.8-0.1,3.6-0.4,5.3
				l-1.4,9.1c-1.2,7.5-3.5,13.1-6.8,16.8C668.5,105.8,664.1,107.6,658.8,107.4z M671.7,74.8c0.3-2.7,0.5-4.7,0.5-5.8
				c-0.1-5.4-2.1-8.2-5.9-8.4c-2.9-0.1-5.3,0.9-7,3.2c-1.8,2.3-3,5.8-3.7,10.8L653.8,86c-0.3,2.5-0.4,4.4-0.4,5.9
				c0,5.6,2,8.5,5.9,8.7c5.4,0.3,8.9-3.9,10.5-12.7L671.7,74.8z"/>
		</g>
	</g>
</g>
<g id="XMLID_678_">
	<path id="XMLID_692_" class="st0" d="M128.3,78.2c0.3-2.4,0.5-4.8,0.5-7.3c0-11.7-3.5-22.5-9.4-31.6c-4.2,0-7.7-3.4-7.7-7.7
		c0-0.5,0.1-1,0.2-1.5C102.7,21.1,90.6,15,77,13.6c-1.4,1.7-3.5,2.8-5.9,2.8s-4.5-1.1-5.9-2.8C51.5,15,39.3,21.2,30.1,30.4
		c0.1,0.4,0.1,0.8,0.1,1.2c0,4.1-3.2,7.5-7.3,7.7c-6,9.1-9.4,19.9-9.4,31.6c0,2.5,0.2,4.9,0.5,7.3c2.5,1.3,4.2,3.9,4.2,6.9
		c0,1.7-0.6,3.3-1.5,4.6c4.5,12.9,13.3,23.7,24.8,30.6c1-0.5,2.1-0.8,3.3-0.8c3.6,0,6.6,2.5,7.5,5.8c5.9,2,12.3,3.2,18.9,3.2
		c6.7,0,13.2-1.2,19.2-3.3c0.9-3.3,3.9-5.7,7.4-5.7c1.1,0,2.2,0.2,3.2,0.7c11.4-6.9,20.2-17.6,24.7-30.4c-1-1.3-1.6-2.9-1.6-4.7
		C124,82.1,125.7,79.5,128.3,78.2z"/>
	<path id="XMLID_689_" class="st1" d="M126.1,76c0.3-2.4,0.5-4.8,0.5-7.3c0-11.7-3.5-22.5-9.4-31.6c-4.2,0-7.7-3.4-7.7-7.7
		c0-0.5,0.1-1,0.2-1.5c-9.1-9.1-21.2-15.1-34.8-16.5c-1.4,1.7-3.5,2.8-5.9,2.8c-2.4,0-4.5-1.1-5.9-2.8C49.3,12.8,37,19,27.9,28.2
		C28,28.6,28,29,28,29.4c0,4.1-3.2,7.5-7.3,7.7c-6,9.1-9.4,19.9-9.4,31.6c0,2.5,0.2,4.9,0.5,7.3c2.5,1.3,4.2,3.9,4.2,6.9
		c0,1.7-0.6,3.3-1.5,4.6c4.5,12.9,13.3,23.7,24.8,30.6c1-0.5,2.1-0.8,3.3-0.8c3.6,0,6.6,2.5,7.5,5.8c5.9,2,12.3,3.2,18.9,3.2
		c6.7,0,13.2-1.2,19.2-3.3c0.9-3.3,3.9-5.7,7.4-5.7c1.1,0,2.2,0.2,3.2,0.7c11.4-6.9,20.2-17.6,24.7-30.4c-1-1.3-1.6-2.9-1.6-4.7
		C121.7,79.9,123.5,77.2,126.1,76z"/>
	<g id="XMLID_95_" class="st2">
		<g id="XMLID_57_">
			<path id="XMLID_61_" d="M63.3,91.4H33.6l0.9-5.5l18.9-18.2c3.5-3.4,5.5-6.6,5.8-9.4c0.3-2-0.1-3.6-1-5c-0.9-1.3-2.3-2-4.2-2.1
				c-2.3-0.1-4.3,0.6-5.8,2.2c-1.6,1.5-2.5,3.6-2.9,6.3l-7.4,0c0.2-2.8,1.1-5.3,2.5-7.5c1.5-2.2,3.5-4,5.9-5.2s5.1-1.8,8-1.8
				c4,0.1,7.1,1.2,9.4,3.4c2.3,2.2,3.3,5.2,3,8.9c-0.4,4.3-2.9,8.7-7.7,13.5L57.2,73L44.1,85.4h20.2L63.3,91.4z"/>
			<path id="XMLID_58_" d="M83.9,92.1c-3.9-0.1-6.9-1.4-8.9-4.1c-2-2.6-3-6.3-2.9-11.1c0-1.5,0.1-3.1,0.3-4.6l1.2-8.1
				c1-6.4,3-11.1,5.9-14.3s6.7-4.7,11.3-4.6c3.9,0.1,6.9,1.4,8.9,4c2,2.6,3,6.3,3,11c0,1.6-0.1,3.1-0.3,4.6l-1.2,7.9
				c-1.1,6.5-3,11.4-5.9,14.6S88.5,92.2,83.9,92.1z M95.1,63.7c0.3-2.4,0.4-4.1,0.4-5.1c-0.1-4.7-1.8-7.1-5.2-7.3
				c-2.5-0.1-4.6,0.8-6.1,2.8c-1.5,2-2.6,5.1-3.3,9.4l-1.4,9.9c-0.3,2.1-0.4,3.8-0.3,5.1c0,4.9,1.7,7.4,5.1,7.5
				c4.7,0.3,7.7-3.4,9.1-11L95.1,63.7z"/>
		</g>
	</g>
</g>
</svg>
