<?xml version="1.0" encoding="utf-8"?>
<!-- Generator: Adobe Illustrator 19.0.0, SVG Export Plug-In . SVG Version: 6.00 Build 0)  -->
<svg version="1.1" id="Layer_1" xmlns="http://www.w3.org/2000/svg" xmlns:xlink="http://www.w3.org/1999/xlink" x="0px" y="0px"
	 viewBox="0 0 140 140" style="enable-background:new 0 0 140 140;" xml:space="preserve">
<style type="text/css">
	.st0{fill:#3F3F3F;}
	.st1{fill:#F3E48F;}
	.st2{opacity:0.33;}
</style>
<g id="XMLID_693_">
	<circle id="XMLID_711_" class="st0" cx="71.1" cy="71.1" r="61.9"/>
	<circle id="XMLID_702_" class="st1" cx="68.9" cy="68.9" r="61.9"/>
	<g id="XMLID_198_" class="st2">
		<g id="XMLID_48_">
			<path id="XMLID_52_" d="M34.6,69l6.9-26.3h27.4l-1.2,7.6H47.5l-3.7,12.6c2.4-1.4,5.1-2.1,8-2.1c4.4,0,7.8,1.7,10.2,4.9
				S65.4,73,65,78.1c-0.4,5.3-2.4,9.5-5.9,12.9c-3.5,3.3-7.8,5-13,4.9c-4.4-0.1-7.9-1.5-10.6-4.2c-2.7-2.7-4.2-6.3-4.3-10.7h8.2
				c0.2,2.4,0.9,4.4,2.1,5.7s2.9,2.1,5.1,2.1c2.7,0.1,4.9-0.9,6.7-2.9c1.8-2,2.9-4.7,3.3-8.1c0.3-3-0.2-5.4-1.5-7.2
				c-1.3-1.8-3.2-2.8-5.7-2.8c-1.5,0-2.9,0.2-4.1,0.7c-1.2,0.5-2.4,1.3-3.5,2.2L34.6,69z"/>
			<path id="XMLID_49_" d="M86.1,95.8c-4.5-0.1-8-1.7-10.3-4.7c-2.3-3-3.5-7.3-3.4-12.8c0-1.8,0.1-3.5,0.4-5.3l1.4-9.4
				c1.2-7.3,3.4-12.8,6.8-16.4c3.4-3.6,7.7-5.4,13-5.3c4.5,0.1,7.9,1.6,10.3,4.6c2.3,3,3.5,7.2,3.4,12.7c0,1.8-0.1,3.6-0.4,5.3
				l-1.4,9.1c-1.2,7.5-3.5,13.1-6.8,16.8C95.8,94.1,91.5,95.9,86.1,95.8z M99,63.2c0.3-2.7,0.5-4.7,0.5-5.8
				c-0.1-5.4-2.1-8.2-5.9-8.4c-2.9-0.1-5.3,0.9-7,3.2c-1.8,2.3-3,5.8-3.7,10.8l-1.7,11.4c-0.3,2.5-0.4,4.4-0.4,5.9
				c0,5.6,2,8.5,5.9,8.7c5.4,0.3,8.9-3.9,10.5-12.7L99,63.2z"/>
		</g>
	</g>
</g>
</svg>
