<?xml version="1.0" encoding="utf-8"?>
<!-- Generator: Adobe Illustrator 19.0.0, SVG Export Plug-In . SVG Version: 6.00 Build 0)  -->
<svg version="1.1" id="Layer_1" xmlns="http://www.w3.org/2000/svg" xmlns:xlink="http://www.w3.org/1999/xlink" x="0px" y="0px"
	 viewBox="0 0 140 140" style="enable-background:new 0 0 140 140;" xml:space="preserve">
<style type="text/css">
	.st0{fill:#3F3F3F;}
	.st1{fill:#D0D0D0;}
	.st2{fill:#F6E780;}
	.st3{opacity:0.33;}
</style>
<g id="XMLID_808_">
	<g id="XMLID_821_">
		<circle id="XMLID_825_" class="st0" cx="71.6" cy="70.9" r="67.3"/>
		<circle id="XMLID_822_" class="st0" cx="71.6" cy="70.9" r="52.5"/>
	</g>
	<g id="XMLID_814_">
		<circle id="XMLID_818_" class="st1" cx="69.3" cy="68.6" r="67.3"/>
		<circle id="XMLID_815_" class="st2" cx="69.3" cy="68.6" r="52.5"/>
	</g>
	<g id="XMLID_96_" class="st3">
		<g id="XMLID_25_">
			<path id="XMLID_26_" d="M89.9,97.6H50.1v-6.8l19.7-21.5c2.8-3.2,4.9-5.8,6.1-7.9c1.2-2.1,1.8-4.3,1.8-6.4c0-2.8-0.8-5.1-2.4-6.8
				c-1.6-1.7-3.7-2.6-6.4-2.6c-3.2,0-5.7,1-7.4,2.9c-1.8,2-2.6,4.6-2.6,8H49c0-3.6,0.8-6.9,2.5-9.7c1.6-2.9,4-5.1,7-6.7
				c3-1.6,6.6-2.4,10.6-2.4c5.7,0,10.3,1.4,13.6,4.3c3.3,2.9,5,6.9,5,12c0,3-0.8,6.1-2.5,9.3c-1.7,3.2-4.4,6.9-8.2,11L62.4,89.7
				h27.5V97.6z"/>
		</g>
	</g>
</g>
</svg>
