<?xml version="1.0" encoding="utf-8"?>
<!-- Generator: Adobe Illustrator 19.0.0, SVG Export Plug-In . SVG Version: 6.00 Build 0)  -->
<svg version="1.1" id="Layer_1" xmlns="http://www.w3.org/2000/svg" xmlns:xlink="http://www.w3.org/1999/xlink" x="0px" y="0px"
	 viewBox="0 0 283.4 140" style="enable-background:new 0 0 283.4 140;" xml:space="preserve">
<style type="text/css">
	.st0{fill:#3F3F3F;}
	.st1{fill:#FFFFFF;}
	.st2{fill:#E8DB5B;}
	.st3{opacity:0.25;fill:#FFFFFF;}
	.st4{opacity:0.3;}
</style>
<g id="XMLID_360_">
	<polygon id="XMLID_391_" class="st0" points="254.8,3.4 139.2,3.4 71.3,3.4 3.4,3.4 3.4,140 71.3,140 139.2,140 254.8,140 
		283.4,140 283.4,3.4 	"/>
	<g id="XMLID_361_">
		<g id="XMLID_384_">
			<rect id="XMLID_390_" x="0" class="st1" width="67.9" height="136.6"/>
			<rect id="XMLID_389_" x="251.4" class="st1" width="28.6" height="136.6"/>
			<rect id="XMLID_386_" x="67.9" class="st2" width="183.6" height="136.6"/>
			<rect id="XMLID_385_" x="67.9" class="st3" width="67.9" height="136.6"/>
		</g>
		<g id="XMLID_467_">
			<path id="XMLID_470_" class="st1" d="M98,62.6c0.7-4.5,2.1-8.9,4.2-13.1c2.1-4.2,4.8-8,8.1-11.3c3.4-3.3,7.3-6,11.9-8
				c4.6-2,9.7-3,15.4-3c7.5,0,14,1.7,19.3,5.1c5.3,3.4,9.3,7.8,11.8,13.3l-6.5,4c-1.3-2.8-3-5.1-4.9-7c-1.9-1.9-4-3.4-6.2-4.6
				c-2.2-1.2-4.5-2-6.9-2.6c-2.4-0.5-4.7-0.8-7-0.8c-4.4,0-8.3,0.8-11.8,2.3c-3.5,1.5-6.5,3.6-9.1,6.2c-2.6,2.6-4.7,5.5-6.4,8.9
				c-1.7,3.4-2.8,6.9-3.4,10.5h40.2l-2.1,5.1h-38.6v2c0,1.8,0.1,3.6,0.4,5.3h36.1l-2.3,5.1h-32.8c1,3.6,2.4,6.9,4.3,9.9
				c1.9,3,4.2,5.7,6.8,8s5.5,4,8.7,5.3c3.2,1.3,6.6,1.9,10.3,1.9c2.4,0,4.8-0.3,7.3-0.9c2.5-0.6,4.9-1.5,7.2-2.9
				c2.3-1.3,4.5-2.9,6.5-4.9c2-1.9,3.6-4.3,5-7.1l6.9,3.6c-1.3,3.2-3.2,6-5.7,8.4c-2.5,2.4-5.2,4.5-8.2,6.1c-3,1.7-6.2,2.9-9.6,3.8
				c-3.4,0.9-6.7,1.3-9.9,1.3c-4.8,0-9.3-0.9-13.5-2.7c-4.2-1.8-7.9-4.2-11.2-7.1c-3.3-3-6.1-6.4-8.4-10.3c-2.3-3.9-4-8.1-5.1-12.4
				H85.3l2.1-5.1h10.5c-0.2-1.9-0.4-3.8-0.4-5.8v-1.5h-8.8l2.1-5.1H98z"/>
		</g>
		<g id="XMLID_411_">
			<g id="XMLID_149_">
				<path id="XMLID_156_" class="st2" d="M205.8,54.7h-25.6v-5.1l12.1-12.9c1.7-1.8,2.9-3.4,3.7-4.8c0.8-1.4,1.2-2.6,1.2-3.9
					c0-1.7-0.4-3-1.3-3.9c-0.8-1-2-1.4-3.6-1.4c-1.7,0-3,0.6-4,1.7c-1,1.2-1.5,2.7-1.5,4.6h-7.4c0-2.3,0.5-4.4,1.6-6.2
					c1.1-1.9,2.6-3.4,4.6-4.4s4.2-1.6,6.8-1.6c3.9,0,6.8,0.9,9,2.8c2.1,1.8,3.2,4.5,3.2,7.8c0,1.8-0.5,3.7-1.4,5.7
					c-1,1.9-2.6,4.2-4.9,6.7l-8.5,9h16.1V54.7z"/>
				<path id="XMLID_153_" class="st2" d="M235.5,39.3c0,5.2-1.1,9.1-3.2,11.9c-2.1,2.7-5.3,4.1-9.4,4.1c-4.1,0-7.2-1.3-9.3-4
					c-2.2-2.7-3.3-6.5-3.3-11.6v-6.9c0-5.2,1.1-9.2,3.2-11.9c2.2-2.7,5.3-4.1,9.4-4.1c4.1,0,7.2,1.3,9.3,4c2.2,2.7,3.3,6.5,3.3,11.5
					V39.3z M228,31.7c0-3.1-0.4-5.4-1.3-6.8c-0.8-1.4-2.2-2.1-4-2.1c-1.7,0-3,0.7-3.9,2c-0.8,1.3-1.3,3.4-1.3,6.3v9.1
					c0,3.1,0.4,5.3,1.2,6.8c0.8,1.5,2.2,2.2,4,2.2c1.8,0,3.1-0.7,3.9-2.1c0.8-1.4,1.2-3.6,1.3-6.5V31.7z"/>
				<path id="XMLID_150_" class="st2" d="M265.7,39.3c0,5.2-1.1,9.1-3.2,11.9c-2.1,2.7-5.3,4.1-9.4,4.1c-4.1,0-7.2-1.3-9.3-4
					c-2.2-2.7-3.3-6.5-3.3-11.6v-6.9c0-5.2,1.1-9.2,3.2-11.9c2.2-2.7,5.3-4.1,9.4-4.1c4.1,0,7.2,1.3,9.3,4c2.2,2.7,3.3,6.5,3.3,11.5
					V39.3z M258.2,31.7c0-3.1-0.4-5.4-1.3-6.8c-0.8-1.4-2.2-2.1-4-2.1c-1.7,0-3,0.7-3.9,2c-0.8,1.3-1.3,3.4-1.3,6.3v9.1
					c0,3.1,0.4,5.3,1.2,6.8c0.8,1.5,2.2,2.2,4,2.2c1.8,0,3.1-0.7,3.9-2.1c0.8-1.4,1.2-3.6,1.3-6.5V31.7z"/>
			</g>
		</g>
		<g id="XMLID_319_">
			<g id="XMLID_139_">
				<path id="XMLID_146_" class="st2" d="M24.5,123.9H10.4v-2.8l6.6-7.1c0.9-1,1.6-1.9,2-2.6c0.4-0.7,0.7-1.4,0.7-2.1
					c0-0.9-0.2-1.6-0.7-2.1c-0.5-0.5-1.1-0.8-2-0.8c-0.9,0-1.6,0.3-2.2,1c-0.5,0.6-0.8,1.5-0.8,2.5H10c0-1.2,0.3-2.4,0.9-3.4
					c0.6-1,1.4-1.8,2.5-2.4c1.1-0.6,2.3-0.9,3.7-0.9c2.1,0,3.8,0.5,4.9,1.5c1.2,1,1.8,2.4,1.8,4.3c0,1-0.3,2-0.8,3.1
					c-0.5,1.1-1.4,2.3-2.7,3.7l-4.7,4.9h8.8V123.9z"/>
				<path id="XMLID_143_" class="st2" d="M40.8,115.5c0,2.8-0.6,5-1.8,6.5s-2.9,2.3-5.2,2.3c-2.2,0-3.9-0.7-5.1-2.2
					c-1.2-1.5-1.8-3.6-1.8-6.3v-3.8c0-2.9,0.6-5,1.8-6.5c1.2-1.5,2.9-2.2,5.1-2.2c2.2,0,3.9,0.7,5.1,2.2c1.2,1.5,1.8,3.6,1.8,6.3
					V115.5z M36.7,111.3c0-1.7-0.2-2.9-0.7-3.7s-1.2-1.2-2.2-1.2c-1,0-1.7,0.4-2.1,1.1c-0.5,0.7-0.7,1.9-0.7,3.5v5
					c0,1.7,0.2,2.9,0.7,3.7c0.5,0.8,1.2,1.2,2.2,1.2c1,0,1.7-0.4,2.2-1.2c0.4-0.8,0.7-2,0.7-3.6V111.3z"/>
				<path id="XMLID_140_" class="st2" d="M57.3,115.5c0,2.8-0.6,5-1.8,6.5s-2.9,2.3-5.2,2.3c-2.2,0-3.9-0.7-5.1-2.2
					c-1.2-1.5-1.8-3.6-1.8-6.3v-3.8c0-2.9,0.6-5,1.8-6.5c1.2-1.5,2.9-2.2,5.1-2.2c2.2,0,3.9,0.7,5.1,2.2c1.2,1.5,1.8,3.6,1.8,6.3
					V115.5z M53.3,111.3c0-1.7-0.2-2.9-0.7-3.7s-1.2-1.2-2.2-1.2c-1,0-1.7,0.4-2.1,1.1c-0.5,0.7-0.7,1.9-0.7,3.5v5
					c0,1.7,0.2,2.9,0.7,3.7c0.5,0.8,1.2,1.2,2.2,1.2c1,0,1.7-0.4,2.2-1.2s0.7-2,0.7-3.6V111.3z"/>
			</g>
		</g>
		<g id="XMLID_347_" class="st4">
			<g id="XMLID_129_">
				<path id="XMLID_136_" d="M205.8,54.7h-25.6v-5.1l12.1-12.9c1.7-1.8,2.9-3.4,3.7-4.8c0.8-1.4,1.2-2.6,1.2-3.9
					c0-1.7-0.4-3-1.3-3.9c-0.8-1-2-1.4-3.6-1.4c-1.7,0-3,0.6-4,1.7c-1,1.2-1.5,2.7-1.5,4.6h-7.4c0-2.3,0.5-4.4,1.6-6.2
					c1.1-1.9,2.6-3.4,4.6-4.4s4.2-1.6,6.8-1.6c3.9,0,6.8,0.9,9,2.8c2.1,1.8,3.2,4.5,3.2,7.8c0,1.8-0.5,3.7-1.4,5.7
					c-1,1.9-2.6,4.2-4.9,6.7l-8.5,9h16.1V54.7z"/>
				<path id="XMLID_133_" d="M235.5,39.3c0,5.2-1.1,9.1-3.2,11.9c-2.1,2.7-5.3,4.1-9.4,4.1c-4.1,0-7.2-1.3-9.3-4
					c-2.2-2.7-3.3-6.5-3.3-11.6v-6.9c0-5.2,1.1-9.2,3.2-11.9c2.2-2.7,5.3-4.1,9.4-4.1c4.1,0,7.2,1.3,9.3,4c2.2,2.7,3.3,6.5,3.3,11.5
					V39.3z M228,31.7c0-3.1-0.4-5.4-1.3-6.8c-0.8-1.4-2.2-2.1-4-2.1c-1.7,0-3,0.7-3.9,2c-0.8,1.3-1.3,3.4-1.3,6.3v9.1
					c0,3.1,0.4,5.3,1.2,6.8c0.8,1.5,2.2,2.2,4,2.2c1.8,0,3.1-0.7,3.9-2.1c0.8-1.4,1.2-3.6,1.3-6.5V31.7z"/>
				<path id="XMLID_130_" d="M265.7,39.3c0,5.2-1.1,9.1-3.2,11.9c-2.1,2.7-5.3,4.1-9.4,4.1c-4.1,0-7.2-1.3-9.3-4
					c-2.2-2.7-3.3-6.5-3.3-11.6v-6.9c0-5.2,1.1-9.2,3.2-11.9c2.2-2.7,5.3-4.1,9.4-4.1c4.1,0,7.2,1.3,9.3,4c2.2,2.7,3.3,6.5,3.3,11.5
					V39.3z M258.2,31.7c0-3.1-0.4-5.4-1.3-6.8c-0.8-1.4-2.2-2.1-4-2.1c-1.7,0-3,0.7-3.9,2c-0.8,1.3-1.3,3.4-1.3,6.3v9.1
					c0,3.1,0.4,5.3,1.2,6.8c0.8,1.5,2.2,2.2,4,2.2c1.8,0,3.1-0.7,3.9-2.1c0.8-1.4,1.2-3.6,1.3-6.5V31.7z"/>
			</g>
		</g>
		<g id="XMLID_298_" class="st4">
			<g id="XMLID_124_">
				<path id="XMLID_158_" d="M24.5,123.9H10.4v-2.8l6.6-7.1c0.9-1,1.6-1.9,2-2.6c0.4-0.7,0.7-1.4,0.7-2.1c0-0.9-0.2-1.6-0.7-2.1
					c-0.5-0.5-1.1-0.8-2-0.8c-0.9,0-1.6,0.3-2.2,1c-0.5,0.6-0.8,1.5-0.8,2.5H10c0-1.2,0.3-2.4,0.9-3.4c0.6-1,1.4-1.8,2.5-2.4
					c1.1-0.6,2.3-0.9,3.7-0.9c2.1,0,3.8,0.5,4.9,1.5c1.2,1,1.8,2.4,1.8,4.3c0,1-0.3,2-0.8,3.1c-0.5,1.1-1.4,2.3-2.7,3.7l-4.7,4.9
					h8.8V123.9z"/>
				<path id="XMLID_128_" d="M40.8,115.5c0,2.8-0.6,5-1.8,6.5s-2.9,2.3-5.2,2.3c-2.2,0-3.9-0.7-5.1-2.2c-1.2-1.5-1.8-3.6-1.8-6.3
					v-3.8c0-2.9,0.6-5,1.8-6.5c1.2-1.5,2.9-2.2,5.1-2.2c2.2,0,3.9,0.7,5.1,2.2c1.2,1.5,1.8,3.6,1.8,6.3V115.5z M36.7,111.3
					c0-1.7-0.2-2.9-0.7-3.7s-1.2-1.2-2.2-1.2c-1,0-1.7,0.4-2.1,1.1c-0.5,0.7-0.7,1.9-0.7,3.5v5c0,1.7,0.2,2.9,0.7,3.7
					c0.5,0.8,1.2,1.2,2.2,1.2c1,0,1.7-0.4,2.2-1.2c0.4-0.8,0.7-2,0.7-3.6V111.3z"/>
				<path id="XMLID_125_" d="M57.3,115.5c0,2.8-0.6,5-1.8,6.5s-2.9,2.3-5.2,2.3c-2.2,0-3.9-0.7-5.1-2.2c-1.2-1.5-1.8-3.6-1.8-6.3
					v-3.8c0-2.9,0.6-5,1.8-6.5c1.2-1.5,2.9-2.2,5.1-2.2c2.2,0,3.9,0.7,5.1,2.2c1.2,1.5,1.8,3.6,1.8,6.3V115.5z M53.3,111.3
					c0-1.7-0.2-2.9-0.7-3.7s-1.2-1.2-2.2-1.2c-1,0-1.7,0.4-2.1,1.1c-0.5,0.7-0.7,1.9-0.7,3.5v5c0,1.7,0.2,2.9,0.7,3.7
					c0.5,0.8,1.2,1.2,2.2,1.2c1,0,1.7-0.4,2.2-1.2s0.7-2,0.7-3.6V111.3z"/>
			</g>
		</g>
	</g>
</g>
</svg>
