<?xml version="1.0" encoding="utf-8"?>
<!-- Generator: Adobe Illustrator 19.0.0, SVG Export Plug-In . SVG Version: 6.00 Build 0)  -->
<svg version="1.1" id="Layer_1" xmlns="http://www.w3.org/2000/svg" xmlns:xlink="http://www.w3.org/1999/xlink" x="0px" y="0px"
	 viewBox="0 0 283.4 140" style="enable-background:new 0 0 283.4 140;" xml:space="preserve">
<style type="text/css">
	.st0{fill:#3F3F3F;}
	.st1{fill:#FFFFFF;}
	.st2{fill:#AEC0C2;}
	.st3{opacity:0.25;fill:#FFFFFF;}
	.st4{opacity:0.3;}
</style>
<g id="XMLID_262_">
	<polygon id="XMLID_295_" class="st0" points="254.8,3.4 139.2,3.4 71.3,3.4 3.4,3.4 3.4,140 71.3,140 139.2,140 254.8,140 
		283.4,140 283.4,3.4 	"/>
	<g id="XMLID_263_">
		<g id="XMLID_288_">
			<rect id="XMLID_294_" x="0" y="0" class="st1" width="67.9" height="136.6"/>
			<rect id="XMLID_293_" x="251.4" y="0" class="st1" width="28.6" height="136.6"/>
			<rect id="XMLID_290_" x="67.9" y="0" class="st2" width="183.6" height="136.6"/>
			<rect id="XMLID_289_" x="67.9" y="0" class="st3" width="67.9" height="136.6"/>
		</g>
		<g id="XMLID_344_">
			<path id="XMLID_345_" class="st1" d="M98,62.6c0.7-4.5,2.1-8.9,4.2-13.1c2.1-4.2,4.8-8,8.1-11.3c3.4-3.3,7.3-6,11.9-8
				c4.6-2,9.7-3,15.4-3c7.5,0,14,1.7,19.3,5.1c5.3,3.4,9.3,7.8,11.8,13.3l-6.5,4c-1.3-2.8-3-5.1-4.9-7c-1.9-1.9-4-3.4-6.2-4.6
				c-2.2-1.2-4.5-2-6.9-2.6c-2.4-0.5-4.7-0.8-7-0.8c-4.4,0-8.3,0.8-11.8,2.3c-3.5,1.5-6.5,3.6-9.1,6.2c-2.6,2.6-4.7,5.5-6.4,8.9
				c-1.7,3.4-2.8,6.9-3.4,10.5h40.2l-2.1,5.1h-38.6v2c0,1.8,0.1,3.6,0.4,5.3h36.1l-2.3,5.1h-32.8c1,3.6,2.4,6.9,4.3,9.9
				c1.9,3,4.2,5.7,6.8,8c2.6,2.3,5.5,4,8.7,5.3c3.2,1.3,6.6,1.9,10.3,1.9c2.4,0,4.8-0.3,7.3-0.9c2.5-0.6,4.9-1.5,7.2-2.9
				c2.3-1.3,4.5-2.9,6.5-4.9c2-1.9,3.6-4.3,5-7.1l6.9,3.6c-1.3,3.2-3.2,6-5.7,8.4c-2.5,2.4-5.2,4.5-8.2,6.1c-3,1.7-6.2,2.9-9.6,3.8
				c-3.4,0.9-6.7,1.3-9.9,1.3c-4.8,0-9.3-0.9-13.5-2.7c-4.2-1.8-7.9-4.2-11.2-7.1c-3.3-3-6.1-6.4-8.4-10.3c-2.3-3.9-4-8.1-5.1-12.4
				H85.3l2.1-5.1h10.5c-0.2-1.9-0.4-3.8-0.4-5.8v-1.5h-8.8l2.1-5.1H98z"/>
		</g>
		<g id="XMLID_340_">
			<g id="XMLID_81_">
				<path id="XMLID_82_" class="st2" d="M241.6,36.3l2.2-19h21v6.2h-14.9l-0.9,8c1.8-0.9,3.6-1.4,5.6-1.4c3.6,0,6.4,1.1,8.4,3.3
					s3,5.3,3,9.3c0,2.4-0.5,4.6-1.5,6.5c-1,1.9-2.5,3.4-4.4,4.4c-1.9,1.1-4.1,1.6-6.7,1.6c-2.3,0-4.4-0.5-6.3-1.4
					c-1.9-0.9-3.5-2.2-4.6-3.9c-1.1-1.7-1.7-3.6-1.8-5.7h7.3c0.2,1.6,0.7,2.8,1.6,3.6c0.9,0.9,2.2,1.3,3.7,1.3c1.7,0,3-0.6,3.9-1.8
					c0.9-1.2,1.4-2.9,1.4-5.1c0-2.1-0.5-3.8-1.6-4.9c-1-1.1-2.5-1.7-4.4-1.7c-1.8,0-3.2,0.5-4.3,1.4l-0.7,0.7L241.6,36.3z"/>
			</g>
		</g>
		<g id="XMLID_335_">
			<g id="XMLID_77_">
				<path id="XMLID_78_" class="st2" d="M11,113.9l1.2-10.4h11.5v3.4h-8.2l-0.5,4.4c1-0.5,2-0.8,3.1-0.8c2,0,3.5,0.6,4.6,1.8
					c1.1,1.2,1.7,2.9,1.7,5.1c0,1.3-0.3,2.5-0.8,3.6s-1.4,1.9-2.4,2.4c-1,0.6-2.3,0.9-3.7,0.9c-1.2,0-2.4-0.3-3.5-0.8
					c-1.1-0.5-1.9-1.2-2.5-2.1s-0.9-1.9-1-3.1h4c0.1,0.9,0.4,1.5,0.9,2c0.5,0.5,1.2,0.7,2,0.7c0.9,0,1.6-0.3,2.1-1
					c0.5-0.7,0.7-1.6,0.7-2.8c0-1.2-0.3-2.1-0.9-2.7c-0.6-0.6-1.4-0.9-2.4-0.9c-1,0-1.8,0.3-2.4,0.8l-0.4,0.4L11,113.9z"/>
			</g>
		</g>
		<g id="XMLID_314_" class="st4">
			<g id="XMLID_73_">
				<path id="XMLID_75_" d="M241.6,36.3l2.2-19h21v6.2h-14.9l-0.9,8c1.8-0.9,3.6-1.4,5.6-1.4c3.6,0,6.4,1.1,8.4,3.3s3,5.3,3,9.3
					c0,2.4-0.5,4.6-1.5,6.5c-1,1.9-2.5,3.4-4.4,4.4c-1.9,1.1-4.1,1.6-6.7,1.6c-2.3,0-4.4-0.5-6.3-1.4c-1.9-0.9-3.5-2.2-4.6-3.9
					c-1.1-1.7-1.7-3.6-1.8-5.7h7.3c0.2,1.6,0.7,2.8,1.6,3.6c0.9,0.9,2.2,1.3,3.7,1.3c1.7,0,3-0.6,3.9-1.8c0.9-1.2,1.4-2.9,1.4-5.1
					c0-2.1-0.5-3.8-1.6-4.9c-1-1.1-2.5-1.7-4.4-1.7c-1.8,0-3.2,0.5-4.3,1.4l-0.7,0.7L241.6,36.3z"/>
			</g>
		</g>
		<g id="XMLID_301_" class="st4">
			<g id="XMLID_80_">
				<path id="XMLID_84_" d="M11,113.9l1.2-10.4h11.5v3.4h-8.2l-0.5,4.4c1-0.5,2-0.8,3.1-0.8c2,0,3.5,0.6,4.6,1.8
					c1.1,1.2,1.7,2.9,1.7,5.1c0,1.3-0.3,2.5-0.8,3.6s-1.4,1.9-2.4,2.4c-1,0.6-2.3,0.9-3.7,0.9c-1.2,0-2.4-0.3-3.5-0.8
					c-1.1-0.5-1.9-1.2-2.5-2.1s-0.9-1.9-1-3.1h4c0.1,0.9,0.4,1.5,0.9,2c0.5,0.5,1.2,0.7,2,0.7c0.9,0,1.6-0.3,2.1-1
					c0.5-0.7,0.7-1.6,0.7-2.8c0-1.2-0.3-2.1-0.9-2.7c-0.6-0.6-1.4-0.9-2.4-0.9c-1,0-1.8,0.3-2.4,0.8l-0.4,0.4L11,113.9z"/>
			</g>
		</g>
	</g>
</g>
</svg>
