<?xml version="1.0" encoding="utf-8"?>
<!-- Generator: Adobe Illustrator 19.0.0, SVG Export Plug-In . SVG Version: 6.00 Build 0)  -->
<svg version="1.1" id="Layer_1" xmlns="http://www.w3.org/2000/svg" xmlns:xlink="http://www.w3.org/1999/xlink" x="0px" y="0px"
	 viewBox="0 0 283.4 140" style="enable-background:new 0 0 283.4 140;" xml:space="preserve">
<style type="text/css">
	.st0{fill:#3F3F3F;}
	.st1{fill:#FFFFFF;}
	.st2{fill:#F6BC72;}
	.st3{opacity:0.25;fill:#FFFFFF;}
	.st4{opacity:0.3;}
</style>
<g id="XMLID_30_">
	<polygon id="XMLID_261_" class="st0" points="254.8,3.4 139.2,3.4 71.3,3.4 3.4,3.4 3.4,140 71.3,140 139.2,140 254.8,140 
		283.4,140 283.4,3.4 	"/>
	<g id="XMLID_32_">
		<g id="XMLID_243_">
			<rect id="XMLID_260_" class="st1" width="67.9" height="136.6"/>
			<rect id="XMLID_256_" x="251.4" class="st1" width="28.6" height="136.6"/>
			<rect id="XMLID_247_" x="67.9" class="st2" width="183.6" height="136.6"/>
			<rect id="XMLID_246_" x="67.9" class="st3" width="67.9" height="136.6"/>
		</g>
		<g id="XMLID_39_">
			<path id="XMLID_50_" class="st1" d="M98,62.6c0.7-4.5,2.1-8.9,4.2-13.1c2.1-4.2,4.8-8,8.1-11.3c3.4-3.3,7.3-6,11.9-8
				c4.6-2,9.7-3,15.4-3c7.5,0,14,1.7,19.3,5.1c5.3,3.4,9.3,7.8,11.8,13.3l-6.5,4c-1.3-2.8-3-5.1-4.9-7c-1.9-1.9-4-3.4-6.2-4.6
				c-2.2-1.2-4.5-2-6.9-2.6c-2.4-0.5-4.7-0.8-7-0.8c-4.4,0-8.3,0.8-11.8,2.3c-3.5,1.5-6.5,3.6-9.1,6.2c-2.6,2.6-4.7,5.5-6.4,8.9
				c-1.7,3.4-2.8,6.9-3.4,10.5h40.2l-2.1,5.1h-38.6v2c0,1.8,0.1,3.6,0.4,5.3h36.1l-2.3,5.1h-32.8c1,3.6,2.4,6.9,4.3,9.9
				c1.9,3,4.2,5.7,6.8,8c2.6,2.3,5.5,4,8.7,5.3c3.2,1.3,6.6,1.9,10.3,1.9c2.4,0,4.8-0.3,7.3-0.9c2.5-0.6,4.9-1.5,7.2-2.9
				c2.3-1.3,4.5-2.9,6.5-4.9c2-1.9,3.6-4.3,5-7.1l6.9,3.6c-1.3,3.2-3.2,6-5.7,8.4c-2.5,2.4-5.2,4.5-8.2,6.1c-3,1.7-6.2,2.9-9.6,3.8
				c-3.4,0.9-6.7,1.3-9.9,1.3c-4.8,0-9.3-0.9-13.5-2.7c-4.2-1.8-7.9-4.2-11.2-7.1c-3.3-3-6.1-6.4-8.4-10.3c-2.3-3.9-4-8.1-5.1-12.4
				H85.3l2.1-5.1h10.5c-0.2-1.9-0.4-3.8-0.4-5.8v-1.5h-8.8l2.1-5.1H98z"/>
		</g>
		<g id="XMLID_282_">
			<g id="XMLID_76_">
				<path id="XMLID_86_" class="st2" d="M211.4,36.3l2.2-19h21v6.2h-14.9l-0.9,8c1.8-0.9,3.6-1.4,5.6-1.4c3.6,0,6.4,1.1,8.4,3.3
					s3,5.3,3,9.3c0,2.4-0.5,4.6-1.5,6.5c-1,1.9-2.5,3.4-4.4,4.4c-1.9,1.1-4.1,1.6-6.7,1.6c-2.3,0-4.4-0.5-6.3-1.4
					c-1.9-0.9-3.5-2.2-4.6-3.9c-1.1-1.7-1.7-3.6-1.8-5.7h7.3c0.2,1.6,0.7,2.8,1.6,3.6c0.9,0.9,2.2,1.3,3.7,1.3c1.7,0,3-0.6,3.9-1.8
					s1.4-2.9,1.4-5.1c0-2.1-0.5-3.8-1.6-4.9c-1-1.1-2.5-1.7-4.4-1.7c-1.8,0-3.2,0.5-4.3,1.4l-0.7,0.7L211.4,36.3z"/>
				<path id="XMLID_79_" class="st2" d="M265.7,39.3c0,5.2-1.1,9.1-3.2,11.9c-2.1,2.7-5.3,4.1-9.4,4.1c-4.1,0-7.2-1.3-9.3-4
					c-2.2-2.7-3.3-6.5-3.3-11.6v-6.9c0-5.2,1.1-9.2,3.2-11.9s5.3-4.1,9.4-4.1c4.1,0,7.2,1.3,9.3,4c2.2,2.7,3.3,6.5,3.3,11.5V39.3z
					 M258.2,31.7c0-3.1-0.4-5.4-1.3-6.8c-0.8-1.4-2.2-2.1-4-2.1c-1.7,0-3,0.7-3.9,2c-0.8,1.3-1.3,3.5-1.3,6.3v9.1
					c0,3.1,0.4,5.3,1.2,6.8c0.8,1.5,2.2,2.2,4,2.2c1.8,0,3.1-0.7,3.9-2.1c0.8-1.4,1.2-3.6,1.3-6.5V31.7z"/>
			</g>
		</g>
		<g id="XMLID_255_">
			<g id="XMLID_68_">
				<path id="XMLID_72_" class="st2" d="M11,113.9l1.2-10.4h11.5v3.4h-8.2l-0.5,4.4c1-0.5,2-0.8,3.1-0.8c2,0,3.5,0.6,4.6,1.8
					c1.1,1.2,1.7,2.9,1.7,5.1c0,1.3-0.3,2.5-0.8,3.6s-1.4,1.9-2.4,2.4c-1,0.6-2.3,0.9-3.7,0.9c-1.2,0-2.4-0.3-3.5-0.8
					c-1.1-0.5-1.9-1.2-2.5-2.1s-0.9-1.9-1-3.1h4c0.1,0.9,0.4,1.5,0.9,2c0.5,0.5,1.2,0.7,2,0.7c0.9,0,1.6-0.3,2.1-1
					c0.5-0.7,0.7-1.6,0.7-2.8c0-1.2-0.3-2.1-0.9-2.7c-0.6-0.6-1.4-0.9-2.4-0.9c-1,0-1.8,0.3-2.4,0.8l-0.4,0.4L11,113.9z"/>
				<path id="XMLID_69_" class="st2" d="M40.8,115.5c0,2.8-0.6,5-1.8,6.5c-1.2,1.5-2.9,2.3-5.2,2.3c-2.2,0-3.9-0.7-5.1-2.2
					c-1.2-1.5-1.8-3.6-1.8-6.3v-3.8c0-2.9,0.6-5,1.8-6.5c1.2-1.5,2.9-2.2,5.1-2.2c2.2,0,3.9,0.7,5.1,2.2c1.2,1.5,1.8,3.6,1.8,6.3
					V115.5z M36.7,111.3c0-1.7-0.2-2.9-0.7-3.7s-1.2-1.2-2.2-1.2c-1,0-1.7,0.4-2.1,1.1c-0.5,0.7-0.7,1.9-0.7,3.5v5
					c0,1.7,0.2,2.9,0.7,3.7c0.5,0.8,1.2,1.2,2.2,1.2c1,0,1.7-0.4,2.2-1.2c0.4-0.8,0.7-2,0.7-3.6V111.3z"/>
			</g>
		</g>
		<g id="XMLID_80_" class="st4">
			<g id="XMLID_61_">
				<path id="XMLID_65_" d="M211.4,36.3l2.2-19h21v6.2h-14.9l-0.9,8c1.8-0.9,3.6-1.4,5.6-1.4c3.6,0,6.4,1.1,8.4,3.3s3,5.3,3,9.3
					c0,2.4-0.5,4.6-1.5,6.5c-1,1.9-2.5,3.4-4.4,4.4c-1.9,1.1-4.1,1.6-6.7,1.6c-2.3,0-4.4-0.5-6.3-1.4c-1.9-0.9-3.5-2.2-4.6-3.9
					c-1.1-1.7-1.7-3.6-1.8-5.7h7.3c0.2,1.6,0.7,2.8,1.6,3.6c0.9,0.9,2.2,1.3,3.7,1.3c1.7,0,3-0.6,3.9-1.8s1.4-2.9,1.4-5.1
					c0-2.1-0.5-3.8-1.6-4.9c-1-1.1-2.5-1.7-4.4-1.7c-1.8,0-3.2,0.5-4.3,1.4l-0.7,0.7L211.4,36.3z"/>
				<path id="XMLID_62_" d="M265.7,39.3c0,5.2-1.1,9.1-3.2,11.9c-2.1,2.7-5.3,4.1-9.4,4.1c-4.1,0-7.2-1.3-9.3-4
					c-2.2-2.7-3.3-6.5-3.3-11.6v-6.9c0-5.2,1.1-9.2,3.2-11.9s5.3-4.1,9.4-4.1c4.1,0,7.2,1.3,9.3,4c2.2,2.7,3.3,6.5,3.3,11.5V39.3z
					 M258.2,31.7c0-3.1-0.4-5.4-1.3-6.8c-0.8-1.4-2.2-2.1-4-2.1c-1.7,0-3,0.7-3.9,2c-0.8,1.3-1.3,3.5-1.3,6.3v9.1
					c0,3.1,0.4,5.3,1.2,6.8c0.8,1.5,2.2,2.2,4,2.2c1.8,0,3.1-0.7,3.9-2.1c0.8-1.4,1.2-3.6,1.3-6.5V31.7z"/>
			</g>
		</g>
		<g id="XMLID_15_" class="st4">
			<g id="XMLID_54_">
				<path id="XMLID_58_" d="M11,113.9l1.2-10.4h11.5v3.4h-8.2l-0.5,4.4c1-0.5,2-0.8,3.1-0.8c2,0,3.5,0.6,4.6,1.8
					c1.1,1.2,1.7,2.9,1.7,5.1c0,1.3-0.3,2.5-0.8,3.6s-1.4,1.9-2.4,2.4c-1,0.6-2.3,0.9-3.7,0.9c-1.2,0-2.4-0.3-3.5-0.8
					c-1.1-0.5-1.9-1.2-2.5-2.1s-0.9-1.9-1-3.1h4c0.1,0.9,0.4,1.5,0.9,2c0.5,0.5,1.2,0.7,2,0.7c0.9,0,1.6-0.3,2.1-1
					c0.5-0.7,0.7-1.6,0.7-2.8c0-1.2-0.3-2.1-0.9-2.7c-0.6-0.6-1.4-0.9-2.4-0.9c-1,0-1.8,0.3-2.4,0.8l-0.4,0.4L11,113.9z"/>
				<path id="XMLID_55_" d="M40.8,115.5c0,2.8-0.6,5-1.8,6.5c-1.2,1.5-2.9,2.3-5.2,2.3c-2.2,0-3.9-0.7-5.1-2.2
					c-1.2-1.5-1.8-3.6-1.8-6.3v-3.8c0-2.9,0.6-5,1.8-6.5c1.2-1.5,2.9-2.2,5.1-2.2c2.2,0,3.9,0.7,5.1,2.2c1.2,1.5,1.8,3.6,1.8,6.3
					V115.5z M36.7,111.3c0-1.7-0.2-2.9-0.7-3.7s-1.2-1.2-2.2-1.2c-1,0-1.7,0.4-2.1,1.1c-0.5,0.7-0.7,1.9-0.7,3.5v5
					c0,1.7,0.2,2.9,0.7,3.7c0.5,0.8,1.2,1.2,2.2,1.2c1,0,1.7-0.4,2.2-1.2c0.4-0.8,0.7-2,0.7-3.6V111.3z"/>
			</g>
		</g>
	</g>
</g>
</svg>
