<?xml version="1.0" encoding="utf-8"?>
<!-- Generator: Adobe Illustrator 19.0.0, SVG Export Plug-In . SVG Version: 6.00 Build 0)  -->
<svg version="1.1" id="Layer_1" xmlns="http://www.w3.org/2000/svg" xmlns:xlink="http://www.w3.org/1999/xlink" x="0px" y="0px"
	 viewBox="0 0 1616 274" style="enable-background:new 0 0 1616 274;" xml:space="preserve">
<style type="text/css">
	.st0{fill:#A9A8A8;}
	.st1{fill:#191919;}
</style>
<g id="XMLID_2_">
	<path id="XMLID_265_" class="st0" d="M124,238.4c-2.4,0-4.7-0.6-6.8-1.6l-60.9-30.5l-12.5,6.2c-0.3,0.1-0.6,0.3-0.8,0.5
		c-0.1,0.1-0.2,0.2-0.3,0.3c-0.5,0.6-0.7,1.3-0.7,2c0,0.7,0.2,1.4,0.7,2c0.1,0.1,0.2,0.2,0.3,0.3c0.2,0.2,0.5,0.4,0.8,0.5L121,257
		c0.2,0.1,0.5,0.2,0.7,0.3c1.5,0.5,3.1,0.5,4.5,0c0.2-0.1,0.5-0.2,0.7-0.3l163.2-81.6c2.4-1.2,2.4-4.6,0-5.8l-12.5-6.2l-146.9,73.5
		C128.7,237.8,126.4,238.4,124,238.4z"/>
	<path id="XMLID_264_" class="st0" d="M291.7,143.3c-0.1-0.3-0.3-0.5-0.4-0.8c-0.3-0.4-0.6-0.7-1.1-0.9L277,135l-18.3,9.1l-9.6,4.8
		l-118.3,59.1c-2.1,1.1-4.5,1.6-6.8,1.6c-2.4,0-4.7-0.6-6.8-1.6L84.9,192l-9.6-4.8L57,178l-13.2,6.6c-0.3,0.1-0.6,0.3-0.8,0.5
		c-0.1,0.1-0.2,0.2-0.3,0.3c-0.5,0.6-0.7,1.3-0.7,2c0,0,0,0,0,0c0,0.9,0.3,1.7,1,2.4c0.2,0.2,0.5,0.4,0.8,0.5l12.5,6.2l9.6,4.8
		l55.1,27.6c0.2,0.1,0.5,0.2,0.7,0.3c1.5,0.5,3.1,0.5,4.5,0c0.2-0.1,0.5-0.2,0.7-0.3l141.2-70.6l9.6-4.8l12.5-6.2
		c0.3-0.1,0.6-0.3,0.8-0.5c0.4-0.4,0.7-0.9,0.9-1.5c0-0.1,0.1-0.3,0.1-0.4c0-0.1,0-0.3,0-0.4C292,144.1,291.9,143.7,291.7,143.3z"/>
	<g id="XMLID_261_">
		<path id="XMLID_263_" class="st0" d="M291.7,114.6c-0.1-0.3-0.3-0.5-0.4-0.8c-0.3-0.4-0.6-0.7-1.1-0.9l-13.2-6.6l-19.1,9.5
			l-9.6,4.8l19.1,9.5l9.6-4.8l13.2-6.6c0.3-0.1,0.6-0.3,0.8-0.5c0.4-0.4,0.7-0.9,0.9-1.5c0-0.1,0.1-0.3,0.1-0.4c0-0.1,0-0.3,0-0.4
			C292,115.5,291.9,115,291.7,114.6z"/>
		<path id="XMLID_262_" class="st0" d="M230,129.8l-9.6,4.8l-89.6,44.8c-2.1,1.1-4.5,1.6-6.8,1.6c-2.4,0-4.7-0.6-6.8-1.6l-3.6-1.8
			l-9.6-4.8l-18.3-9.1l-9.6-4.8L57,149.4L43.8,156c-0.3,0.1-0.6,0.3-0.8,0.5c-0.1,0.1-0.2,0.2-0.3,0.3c-0.5,0.6-0.7,1.3-0.7,2
			c0,0,0,0,0,0c0,0.9,0.3,1.7,1,2.4c0.2,0.2,0.5,0.4,0.8,0.5l13.2,6.6l9.6,4.8v0l18.3,9.1l9.6,4.8l26.5,13.2
			c0.2,0.1,0.5,0.2,0.7,0.3c1.5,0.5,3.1,0.5,4.5,0c0.2-0.1,0.5-0.2,0.7-0.3l112.5-56.2l9.6-4.8l18.3-9.1l-19.1-9.5L230,129.8z"/>
	</g>
	<g id="XMLID_43_">
		<path id="XMLID_257_" class="st0" d="M207,130.9l-83,41.5c0.8,0,1.5-0.1,2.3-0.4c0.2-0.1,0.5-0.2,0.7-0.3l83-41.5
			c-0.3,0-0.5,0-0.8,0c-0.2,0-0.4,0.1-0.6,0.1c-0.4,0.1-0.7,0.2-1.1,0.3C207.4,130.8,207.2,130.8,207,130.9z"/>
		<path id="XMLID_250_" class="st0" d="M291.7,86c-0.1-0.3-0.3-0.5-0.4-0.8c-0.3-0.4-0.6-0.7-1.1-0.9L277,77.7l-19.1,9.5l-9.6,4.8
			l19.1,9.5l9.6-4.8l13.2-6.6c0.3-0.1,0.6-0.3,0.8-0.5c0.4-0.4,0.7-0.9,0.9-1.5c0-0.1,0.1-0.3,0.1-0.4c0-0.1,0-0.3,0-0.4
			C292,86.8,291.9,86.4,291.7,86z"/>
		<path id="XMLID_249_" class="st0" d="M57,120.7l-13.2,6.6c-0.4,0.2-0.8,0.5-1.1,0.9c-0.5,0.6-0.7,1.3-0.7,2c0,0,0,0,0,0
			c0,0.9,0.3,1.7,1,2.4c0.2,0.2,0.5,0.4,0.8,0.5l13.2,6.6l9.6,4.8l19.1-9.5l-9.6-4.8L57,120.7z"/>
		<polygon id="XMLID_248_" class="st0" points="219.6,106.4 238.7,115.9 248.3,111.1 267.3,101.6 248.3,92 229.2,101.6 		"/>
		<path id="XMLID_242_" class="st0" d="M124,152.4c-2.4,0-4.7-0.6-6.8-1.6l-2.8-1.4l-9.6-4.8L85.7,135l-19.1,9.5l19.1,9.5l9.6,4.8v0
			l18.3,9.1l7.4,3.7c0.2,0.1,0.5,0.2,0.7,0.3c0.7,0.3,1.5,0.4,2.3,0.4l83-41.5c0.2-0.1,0.4-0.2,0.5-0.2c0.4-0.1,0.7-0.3,1.1-0.3
			c0.2,0,0.4-0.1,0.6-0.1c0.3,0,0.5,0,0.8,0l10.4-5.2l18.3-9.1l-19.1-9.5l-88.8,44.4C128.7,151.8,126.4,152.4,124,152.4z"/>
	</g>
	<path id="XMLID_31_" class="st0" d="M291.7,57.3c-0.1-0.3-0.3-0.5-0.4-0.8c-0.3-0.4-0.6-0.7-1.1-0.9L213,17
		c-0.7-0.4-1.5-0.6-2.2-0.7c-0.3,0-0.5,0-0.8,0c-0.3,0-0.5,0-0.8,0c-0.8,0.1-1.5,0.3-2.2,0.7L43.8,98.7c-0.4,0.2-0.8,0.5-1.1,0.9
		c-0.5,0.6-0.7,1.3-0.7,2c0,0,0,0,0,0c0,0.9,0.3,1.7,1,2.4c0.2,0.2,0.5,0.4,0.8,0.5l13.2,6.6l9.6,4.8L207,45.7
		c0.5-0.3,1.1-0.5,1.6-0.6c-0.6,0.1-1.1,0.3-1.6,0.6L66.7,115.9l19.1,9.5l9.6,4.8L207,74.4c0.2-0.1,0.4-0.2,0.5-0.2
		c0.4-0.1,0.7-0.3,1.1-0.3c0.2,0,0.4-0.1,0.6-0.1c0.5-0.1,1-0.1,1.5,0c-0.2,0-0.5,0-0.7,0c-0.3,0-0.5,0-0.8,0
		c-0.2,0-0.4,0.1-0.6,0.1c-0.4,0.1-0.7,0.2-1.1,0.3c-0.2,0.1-0.4,0.2-0.5,0.2L95.3,130.2l19.1,9.5l6.6,3.3c1.9,0.9,4.1,0.9,6,0
		l80-40l12.6-6.3l19.1-9.5L213,74.4l25.7,12.8l9.6-4.8l19.1-9.5L213,45.7l54.4,27.2l9.6-4.8l13.2-6.6c0.3-0.1,0.6-0.3,0.8-0.5
		c0.4-0.4,0.7-0.9,0.9-1.5c0-0.1,0.1-0.3,0.1-0.4c0-0.1,0-0.3,0-0.4C292,58.1,291.9,57.7,291.7,57.3z M209.2,45c0.5-0.1,1-0.1,1.5,0
		c-0.3,0-0.5,0-0.8,0C209.7,45,209.5,45,209.2,45z"/>
</g>
<g id="XMLID_4_">
	<path id="XMLID_35_" class="st1" d="M380,238.4c-2.4,0-4.7-0.6-6.8-1.6l-60.9-30.5l-12.5,6.2c-0.3,0.1-0.6,0.3-0.8,0.5
		c-0.1,0.1-0.2,0.2-0.3,0.3c-0.5,0.6-0.7,1.3-0.7,2c0,0.7,0.2,1.4,0.7,2c0.1,0.1,0.2,0.2,0.3,0.3c0.2,0.2,0.5,0.4,0.8,0.5L377,257
		c0.2,0.1,0.5,0.2,0.7,0.3c1.5,0.5,3.1,0.5,4.5,0c0.2-0.1,0.5-0.2,0.7-0.3l163.2-81.6c2.4-1.2,2.4-4.6,0-5.8l-12.5-6.2l-146.9,73.5
		C384.7,237.8,382.4,238.4,380,238.4z"/>
	<path id="XMLID_34_" class="st0" d="M547.7,143.3c-0.1-0.3-0.3-0.5-0.4-0.8c-0.3-0.4-0.6-0.7-1.1-0.9L533,135l-18.3,9.1l-9.6,4.8
		l-118.3,59.1c-2.1,1.1-4.5,1.6-6.8,1.6c-2.4,0-4.7-0.6-6.8-1.6L340.9,192l-9.6-4.8L313,178l-13.2,6.6c-0.3,0.1-0.6,0.3-0.8,0.5
		c-0.1,0.1-0.2,0.2-0.3,0.3c-0.5,0.6-0.7,1.3-0.7,2c0,0,0,0,0,0c0,0.9,0.3,1.7,1,2.4c0.2,0.2,0.5,0.4,0.8,0.5l12.5,6.2l9.6,4.8
		l55.1,27.6c0.2,0.1,0.5,0.2,0.7,0.3c1.5,0.5,3.1,0.5,4.5,0c0.2-0.1,0.5-0.2,0.7-0.3l141.2-70.6l9.6-4.8l12.5-6.2
		c0.3-0.1,0.6-0.3,0.8-0.5c0.4-0.4,0.7-0.9,0.9-1.5c0-0.1,0.1-0.3,0.1-0.4c0-0.1,0-0.3,0-0.4C548,144.1,547.9,143.7,547.7,143.3z"/>
	<g id="XMLID_30_">
		<path id="XMLID_33_" class="st0" d="M547.7,114.6c-0.1-0.3-0.3-0.5-0.4-0.8c-0.3-0.4-0.6-0.7-1.1-0.9l-13.2-6.6l-19.1,9.5
			l-9.6,4.8l19.1,9.5l9.6-4.8l13.2-6.6c0.3-0.1,0.6-0.3,0.8-0.5c0.4-0.4,0.7-0.9,0.9-1.5c0-0.1,0.1-0.3,0.1-0.4c0-0.1,0-0.3,0-0.4
			C548,115.5,547.9,115,547.7,114.6z"/>
		<path id="XMLID_32_" class="st0" d="M486,129.8l-9.6,4.8l-89.6,44.8c-2.1,1.1-4.5,1.6-6.8,1.6c-2.4,0-4.7-0.6-6.8-1.6l-3.6-1.8
			l-9.6-4.8l-18.3-9.1l-9.6-4.8l-19.1-9.5l-13.2,6.6c-0.3,0.1-0.6,0.3-0.8,0.5c-0.1,0.1-0.2,0.2-0.3,0.3c-0.5,0.6-0.7,1.3-0.7,2
			c0,0,0,0,0,0c0,0.9,0.3,1.7,1,2.4c0.2,0.2,0.5,0.4,0.8,0.5l13.2,6.6l9.6,4.8v0l18.3,9.1l9.6,4.8l26.5,13.2
			c0.2,0.1,0.5,0.2,0.7,0.3c1.5,0.5,3.1,0.5,4.5,0c0.2-0.1,0.5-0.2,0.7-0.3l112.5-56.2l9.6-4.8l18.3-9.1l-19.1-9.5L486,129.8z"/>
	</g>
	<g id="XMLID_21_">
		<path id="XMLID_29_" class="st0" d="M463,130.9l-83,41.5c0.8,0,1.5-0.1,2.3-0.4c0.2-0.1,0.5-0.2,0.7-0.3l83-41.5
			c-0.3,0-0.5,0-0.8,0c-0.2,0-0.4,0.1-0.6,0.1c-0.4,0.1-0.7,0.2-1.1,0.3C463.4,130.8,463.2,130.8,463,130.9z"/>
		<path id="XMLID_28_" class="st0" d="M547.7,86c-0.1-0.3-0.3-0.5-0.4-0.8c-0.3-0.4-0.6-0.7-1.1-0.9L533,77.7l-19.1,9.5l-9.6,4.8
			l19.1,9.5l9.6-4.8l13.2-6.6c0.3-0.1,0.6-0.3,0.8-0.5c0.4-0.4,0.7-0.9,0.9-1.5c0-0.1,0.1-0.3,0.1-0.4c0-0.1,0-0.3,0-0.4
			C548,86.8,547.9,86.4,547.7,86z"/>
		<path id="XMLID_24_" class="st0" d="M313,120.7l-13.2,6.6c-0.4,0.2-0.8,0.5-1.1,0.9c-0.5,0.6-0.7,1.3-0.7,2c0,0,0,0,0,0
			c0,0.9,0.3,1.7,1,2.4c0.2,0.2,0.5,0.4,0.8,0.5l13.2,6.6l9.6,4.8l19.1-9.5l-9.6-4.8L313,120.7z"/>
		<polygon id="XMLID_23_" class="st0" points="475.6,106.4 494.7,115.9 504.3,111.1 523.3,101.6 504.3,92 485.2,101.6 		"/>
		<path id="XMLID_22_" class="st0" d="M380,152.4c-2.4,0-4.7-0.6-6.8-1.6l-2.8-1.4l-9.6-4.8l-19.1-9.5l-19.1,9.5l19.1,9.5l9.6,4.8v0
			l18.3,9.1l7.4,3.7c0.2,0.1,0.5,0.2,0.7,0.3c0.7,0.3,1.5,0.4,2.3,0.4l83-41.5c0.2-0.1,0.4-0.2,0.5-0.2c0.4-0.1,0.7-0.3,1.1-0.3
			c0.2,0,0.4-0.1,0.6-0.1c0.3,0,0.5,0,0.8,0l10.4-5.2l18.3-9.1l-19.1-9.5l-88.8,44.4C384.7,151.8,382.4,152.4,380,152.4z"/>
	</g>
	<path id="XMLID_5_" class="st0" d="M547.7,57.3c-0.1-0.3-0.3-0.5-0.4-0.8c-0.3-0.4-0.6-0.7-1.1-0.9L469,17
		c-0.7-0.4-1.5-0.6-2.2-0.7c-0.3,0-0.5,0-0.8,0c-0.3,0-0.5,0-0.8,0c-0.8,0.1-1.5,0.3-2.2,0.7L299.8,98.7c-0.4,0.2-0.8,0.5-1.1,0.9
		c-0.5,0.6-0.7,1.3-0.7,2c0,0,0,0,0,0c0,0.9,0.3,1.7,1,2.4c0.2,0.2,0.5,0.4,0.8,0.5l13.2,6.6l9.6,4.8L463,45.7
		c0.5-0.3,1.1-0.5,1.6-0.6c-0.6,0.1-1.1,0.3-1.6,0.6l-140.4,70.2l19.1,9.5l9.6,4.8L463,74.4c0.2-0.1,0.4-0.2,0.5-0.2
		c0.4-0.1,0.7-0.3,1.1-0.3c0.2,0,0.4-0.1,0.6-0.1c0.5-0.1,1-0.1,1.5,0c-0.2,0-0.5,0-0.7,0c-0.3,0-0.5,0-0.8,0
		c-0.2,0-0.4,0.1-0.6,0.1c-0.4,0.1-0.7,0.2-1.1,0.3c-0.2,0.1-0.4,0.2-0.5,0.2l-111.7,55.8l19.1,9.5l6.6,3.3c1.9,0.9,4.1,0.9,6,0
		l80-40l12.6-6.3l19.1-9.5L469,74.4l25.7,12.8l9.6-4.8l19.1-9.5L469,45.7l54.4,27.2l9.6-4.8l13.2-6.6c0.3-0.1,0.6-0.3,0.8-0.5
		c0.4-0.4,0.7-0.9,0.9-1.5c0-0.1,0.1-0.3,0.1-0.4c0-0.1,0-0.3,0-0.4C548,58.1,547.9,57.7,547.7,57.3z M465.2,45c0.5-0.1,1-0.1,1.5,0
		c-0.3,0-0.5,0-0.8,0C465.7,45,465.5,45,465.2,45z"/>
</g>
<g id="XMLID_252_">
	<path id="XMLID_272_" class="st1" d="M636,238.4c-2.4,0-4.7-0.6-6.8-1.6l-60.9-30.5l-12.5,6.2c-0.3,0.1-0.6,0.3-0.8,0.5
		c-0.1,0.1-0.2,0.2-0.3,0.3c-0.5,0.6-0.7,1.3-0.7,2c0,0.7,0.2,1.4,0.7,2c0.1,0.1,0.2,0.2,0.3,0.3c0.2,0.2,0.5,0.4,0.8,0.5L633,257
		c0.2,0.1,0.5,0.2,0.7,0.3c1.5,0.5,3.1,0.5,4.5,0c0.2-0.1,0.5-0.2,0.7-0.3l163.2-81.6c2.4-1.2,2.4-4.6,0-5.8l-12.5-6.2l-146.9,73.5
		C640.7,237.8,638.4,238.4,636,238.4z"/>
	<path id="XMLID_271_" class="st1" d="M803.7,143.3c-0.1-0.3-0.3-0.5-0.4-0.8c-0.3-0.4-0.6-0.7-1.1-0.9L789,135l-18.3,9.1l-9.6,4.8
		l-118.3,59.1c-2.1,1.1-4.5,1.6-6.8,1.6c-2.4,0-4.7-0.6-6.8-1.6L596.9,192l-9.6-4.8L569,178l-13.2,6.6c-0.3,0.1-0.6,0.3-0.8,0.5
		c-0.1,0.1-0.2,0.2-0.3,0.3c-0.5,0.6-0.7,1.3-0.7,2c0,0,0,0,0,0c0,0.9,0.3,1.7,1,2.4c0.2,0.2,0.5,0.4,0.8,0.5l12.5,6.2l9.6,4.8
		l55.1,27.6c0.2,0.1,0.5,0.2,0.7,0.3c1.5,0.5,3.1,0.5,4.5,0c0.2-0.1,0.5-0.2,0.7-0.3l141.2-70.6l9.6-4.8l12.5-6.2
		c0.3-0.1,0.6-0.3,0.8-0.5c0.4-0.4,0.7-0.9,0.9-1.5c0-0.1,0.1-0.3,0.1-0.4c0-0.1,0-0.3,0-0.4C804,144.1,803.9,143.7,803.7,143.3z"/>
	<g id="XMLID_268_">
		<path id="XMLID_270_" class="st0" d="M803.7,114.6c-0.1-0.3-0.3-0.5-0.4-0.8c-0.3-0.4-0.6-0.7-1.1-0.9l-13.2-6.6l-19.1,9.5
			l-9.6,4.8l19.1,9.5l9.6-4.8l13.2-6.6c0.3-0.1,0.6-0.3,0.8-0.5c0.4-0.4,0.7-0.9,0.9-1.5c0-0.1,0.1-0.3,0.1-0.4c0-0.1,0-0.3,0-0.4
			C804,115.5,803.9,115,803.7,114.6z"/>
		<path id="XMLID_269_" class="st0" d="M742,129.8l-9.6,4.8l-89.6,44.8c-2.1,1.1-4.5,1.6-6.8,1.6c-2.4,0-4.7-0.6-6.8-1.6l-3.6-1.8
			l-9.6-4.8l-18.3-9.1l-9.6-4.8l-19.1-9.5l-13.2,6.6c-0.3,0.1-0.6,0.3-0.8,0.5c-0.1,0.1-0.2,0.2-0.3,0.3c-0.5,0.6-0.7,1.3-0.7,2
			c0,0,0,0,0,0c0,0.9,0.3,1.7,1,2.4c0.2,0.2,0.5,0.4,0.8,0.5l13.2,6.6l9.6,4.8v0l18.3,9.1l9.6,4.8l26.5,13.2
			c0.2,0.1,0.5,0.2,0.7,0.3c1.5,0.5,3.1,0.5,4.5,0c0.2-0.1,0.5-0.2,0.7-0.3l112.5-56.2l9.6-4.8l18.3-9.1l-19.1-9.5L742,129.8z"/>
	</g>
	<g id="XMLID_256_">
		<path id="XMLID_267_" class="st0" d="M719,130.9l-83,41.5c0.8,0,1.5-0.1,2.3-0.4c0.2-0.1,0.5-0.2,0.7-0.3l83-41.5
			c-0.3,0-0.5,0-0.8,0c-0.2,0-0.4,0.1-0.6,0.1c-0.4,0.1-0.7,0.2-1.1,0.3C719.4,130.8,719.2,130.8,719,130.9z"/>
		<path id="XMLID_266_" class="st0" d="M803.7,86c-0.1-0.3-0.3-0.5-0.4-0.8c-0.3-0.4-0.6-0.7-1.1-0.9L789,77.7l-19.1,9.5l-9.6,4.8
			l19.1,9.5l9.6-4.8l13.2-6.6c0.3-0.1,0.6-0.3,0.8-0.5c0.4-0.4,0.7-0.9,0.9-1.5c0-0.1,0.1-0.3,0.1-0.4c0-0.1,0-0.3,0-0.4
			C804,86.8,803.9,86.4,803.7,86z"/>
		<path id="XMLID_260_" class="st0" d="M569,120.7l-13.2,6.6c-0.4,0.2-0.8,0.5-1.1,0.9c-0.5,0.6-0.7,1.3-0.7,2c0,0,0,0,0,0
			c0,0.9,0.3,1.7,1,2.4c0.2,0.2,0.5,0.4,0.8,0.5l13.2,6.6l9.6,4.8l19.1-9.5l-9.6-4.8L569,120.7z"/>
		<polygon id="XMLID_259_" class="st0" points="731.6,106.4 750.7,115.9 760.3,111.1 779.3,101.6 760.3,92 741.2,101.6 		"/>
		<path id="XMLID_258_" class="st0" d="M636,152.4c-2.4,0-4.7-0.6-6.8-1.6l-2.8-1.4l-9.6-4.8l-19.1-9.5l-19.1,9.5l19.1,9.5l9.6,4.8
			v0l18.3,9.1l7.4,3.7c0.2,0.1,0.5,0.2,0.7,0.3c0.7,0.3,1.5,0.4,2.3,0.4l83-41.5c0.2-0.1,0.4-0.2,0.5-0.2c0.4-0.1,0.7-0.3,1.1-0.3
			c0.2,0,0.4-0.1,0.6-0.1c0.3,0,0.5,0,0.8,0l10.4-5.2l18.3-9.1l-19.1-9.5l-88.8,44.4C640.7,151.8,638.4,152.4,636,152.4z"/>
	</g>
	<path id="XMLID_253_" class="st0" d="M803.7,57.3c-0.1-0.3-0.3-0.5-0.4-0.8c-0.3-0.4-0.6-0.7-1.1-0.9L725,17
		c-0.7-0.4-1.5-0.6-2.2-0.7c-0.3,0-0.5,0-0.8,0c-0.3,0-0.5,0-0.8,0c-0.8,0.1-1.5,0.3-2.2,0.7L555.8,98.7c-0.4,0.2-0.8,0.5-1.1,0.9
		c-0.5,0.6-0.7,1.3-0.7,2c0,0,0,0,0,0c0,0.9,0.3,1.7,1,2.4c0.2,0.2,0.5,0.4,0.8,0.5l13.2,6.6l9.6,4.8L719,45.7
		c0.5-0.3,1.1-0.5,1.6-0.6c-0.6,0.1-1.1,0.3-1.6,0.6l-140.4,70.2l19.1,9.5l9.6,4.8L719,74.4c0.2-0.1,0.4-0.2,0.5-0.2
		c0.4-0.1,0.7-0.3,1.1-0.3c0.2,0,0.4-0.1,0.6-0.1c0.5-0.1,1-0.1,1.5,0c-0.2,0-0.5,0-0.7,0c-0.3,0-0.5,0-0.8,0
		c-0.2,0-0.4,0.1-0.6,0.1c-0.4,0.1-0.7,0.2-1.1,0.3c-0.2,0.1-0.4,0.2-0.5,0.2l-111.7,55.8l19.1,9.5l6.6,3.3c1.9,0.9,4.1,0.9,6,0
		l80-40l12.6-6.3l19.1-9.5L725,74.4l25.7,12.8l9.6-4.8l19.1-9.5L725,45.7l54.4,27.2l9.6-4.8l13.2-6.6c0.3-0.1,0.6-0.3,0.8-0.5
		c0.4-0.4,0.7-0.9,0.9-1.5c0-0.1,0.1-0.3,0.1-0.4c0-0.1,0-0.3,0-0.4C804,58.1,803.9,57.7,803.7,57.3z M721.2,45c0.5-0.1,1-0.1,1.5,0
		c-0.3,0-0.5,0-0.8,0C721.7,45,721.5,45,721.2,45z"/>
</g>
<g id="XMLID_36_">
	<path id="XMLID_251_" class="st1" d="M892,238.4c-2.4,0-4.7-0.6-6.8-1.6l-60.9-30.5l-12.5,6.2c-0.3,0.1-0.6,0.3-0.8,0.5
		c-0.1,0.1-0.2,0.2-0.3,0.3c-0.5,0.6-0.7,1.3-0.7,2c0,0.7,0.2,1.4,0.7,2c0.1,0.1,0.2,0.2,0.3,0.3c0.2,0.2,0.5,0.4,0.8,0.5L889,257
		c0.2,0.1,0.5,0.2,0.7,0.3c1.5,0.5,3.1,0.5,4.5,0c0.2-0.1,0.5-0.2,0.7-0.3l163.2-81.6c2.4-1.2,2.4-4.6,0-5.8l-12.5-6.2l-146.9,73.5
		C896.7,237.8,894.4,238.4,892,238.4z"/>
	<path id="XMLID_247_" class="st1" d="M1059.7,143.3c-0.1-0.3-0.3-0.5-0.4-0.8c-0.3-0.4-0.6-0.7-1.1-0.9L1045,135l-18.3,9.1
		l-9.6,4.8l-118.3,59.1c-2.1,1.1-4.5,1.6-6.8,1.6c-2.4,0-4.7-0.6-6.8-1.6L852.9,192l-9.6-4.8L825,178l-13.2,6.6
		c-0.3,0.1-0.6,0.3-0.8,0.5c-0.1,0.1-0.2,0.2-0.3,0.3c-0.5,0.6-0.7,1.3-0.7,2c0,0,0,0,0,0c0,0.9,0.3,1.7,1,2.4
		c0.2,0.2,0.5,0.4,0.8,0.5l12.5,6.2l9.6,4.8l55.1,27.6c0.2,0.1,0.5,0.2,0.7,0.3c1.5,0.5,3.1,0.5,4.5,0c0.2-0.1,0.5-0.2,0.7-0.3
		l141.2-70.6l9.6-4.8l12.5-6.2c0.3-0.1,0.6-0.3,0.8-0.5c0.4-0.4,0.7-0.9,0.9-1.5c0-0.1,0.1-0.3,0.1-0.4s0-0.3,0-0.4
		C1060,144.1,1059.9,143.7,1059.7,143.3z"/>
	<g id="XMLID_244_">
		<path id="XMLID_246_" class="st1" d="M1059.7,114.6c-0.1-0.3-0.3-0.5-0.4-0.8c-0.3-0.4-0.6-0.7-1.1-0.9l-13.2-6.6l-19.1,9.5
			l-9.6,4.8l19.1,9.5l9.6-4.8l13.2-6.6c0.3-0.1,0.6-0.3,0.8-0.5c0.4-0.4,0.7-0.9,0.9-1.5c0-0.1,0.1-0.3,0.1-0.4s0-0.3,0-0.4
			C1060,115.5,1059.9,115,1059.7,114.6z"/>
		<path id="XMLID_245_" class="st1" d="M998,129.8l-9.6,4.8l-89.6,44.8c-2.1,1.1-4.5,1.6-6.8,1.6c-2.4,0-4.7-0.6-6.8-1.6l-3.6-1.8
			l-9.6-4.8l-18.3-9.1l-9.6-4.8l-19.1-9.5l-13.2,6.6c-0.3,0.1-0.6,0.3-0.8,0.5c-0.1,0.1-0.2,0.2-0.3,0.3c-0.5,0.6-0.7,1.3-0.7,2
			c0,0,0,0,0,0c0,0.9,0.3,1.7,1,2.4c0.2,0.2,0.5,0.4,0.8,0.5l13.2,6.6l9.6,4.8v0l18.3,9.1l9.6,4.8l26.5,13.2
			c0.2,0.1,0.5,0.2,0.7,0.3c1.5,0.5,3.1,0.5,4.5,0c0.2-0.1,0.5-0.2,0.7-0.3l112.5-56.2l9.6-4.8l18.3-9.1l-19.1-9.5L998,129.8z"/>
	</g>
	<g id="XMLID_237_">
		<path id="XMLID_243_" class="st0" d="M975,130.9l-83,41.5c0.8,0,1.5-0.1,2.3-0.4c0.2-0.1,0.5-0.2,0.7-0.3l83-41.5
			c-0.3,0-0.5,0-0.8,0c-0.2,0-0.4,0.1-0.6,0.1c-0.4,0.1-0.7,0.2-1.1,0.3C975.4,130.8,975.2,130.8,975,130.9z"/>
		<path id="XMLID_241_" class="st0" d="M1059.7,86c-0.1-0.3-0.3-0.5-0.4-0.8c-0.3-0.4-0.6-0.7-1.1-0.9l-13.2-6.6l-19.1,9.5l-9.6,4.8
			l19.1,9.5l9.6-4.8l13.2-6.6c0.3-0.1,0.6-0.3,0.8-0.5c0.4-0.4,0.7-0.9,0.9-1.5c0-0.1,0.1-0.3,0.1-0.4s0-0.3,0-0.4
			C1060,86.8,1059.9,86.4,1059.7,86z"/>
		<path id="XMLID_240_" class="st0" d="M825,120.7l-13.2,6.6c-0.4,0.2-0.8,0.5-1.1,0.9c-0.5,0.6-0.7,1.3-0.7,2c0,0,0,0,0,0
			c0,0.9,0.3,1.7,1,2.4c0.2,0.2,0.5,0.4,0.8,0.5l13.2,6.6l9.6,4.8l19.1-9.5l-9.6-4.8L825,120.7z"/>
		<polygon id="XMLID_239_" class="st0" points="987.6,106.4 1006.7,115.9 1016.3,111.1 1035.3,101.6 1016.3,92 997.2,101.6 		"/>
		<path id="XMLID_238_" class="st0" d="M892,152.4c-2.4,0-4.7-0.6-6.8-1.6l-2.8-1.4l-9.6-4.8l-19.1-9.5l-19.1,9.5l19.1,9.5l9.6,4.8
			v0l18.3,9.1l7.4,3.7c0.2,0.1,0.5,0.2,0.7,0.3c0.7,0.3,1.5,0.4,2.3,0.4l83-41.5c0.2-0.1,0.4-0.2,0.5-0.2c0.4-0.1,0.7-0.3,1.1-0.3
			c0.2,0,0.4-0.1,0.6-0.1c0.3,0,0.5,0,0.8,0l10.4-5.2l18.3-9.1l-19.1-9.5l-88.8,44.4C896.7,151.8,894.4,152.4,892,152.4z"/>
	</g>
	<path id="XMLID_37_" class="st0" d="M1059.7,57.3c-0.1-0.3-0.3-0.5-0.4-0.8c-0.3-0.4-0.6-0.7-1.1-0.9L981,17
		c-0.7-0.4-1.5-0.6-2.2-0.7c-0.3,0-0.5,0-0.8,0c-0.3,0-0.5,0-0.8,0c-0.8,0.1-1.5,0.3-2.2,0.7L811.8,98.7c-0.4,0.2-0.8,0.5-1.1,0.9
		c-0.5,0.6-0.7,1.3-0.7,2c0,0,0,0,0,0c0,0.9,0.3,1.7,1,2.4c0.2,0.2,0.5,0.4,0.8,0.5l13.2,6.6l9.6,4.8L975,45.7
		c0.5-0.3,1.1-0.5,1.6-0.6c-0.6,0.1-1.1,0.3-1.6,0.6l-140.4,70.2l19.1,9.5l9.6,4.8L975,74.4c0.2-0.1,0.4-0.2,0.5-0.2
		c0.4-0.1,0.7-0.3,1.1-0.3c0.2,0,0.4-0.1,0.6-0.1c0.5-0.1,1-0.1,1.5,0c-0.2,0-0.5,0-0.7,0c-0.3,0-0.5,0-0.8,0
		c-0.2,0-0.4,0.1-0.6,0.1c-0.4,0.1-0.7,0.2-1.1,0.3c-0.2,0.1-0.4,0.2-0.5,0.2l-111.7,55.8l19.1,9.5l6.6,3.3c1.9,0.9,4.1,0.9,6,0
		l80-40l12.6-6.3l19.1-9.5L981,74.4l25.7,12.8l9.6-4.8l19.1-9.5L981,45.7l54.4,27.2l9.6-4.8l13.2-6.6c0.3-0.1,0.6-0.3,0.8-0.5
		c0.4-0.4,0.7-0.9,0.9-1.5c0-0.1,0.1-0.3,0.1-0.4c0-0.1,0-0.3,0-0.4C1060,58.1,1059.9,57.7,1059.7,57.3z M977.2,45
		c0.5-0.1,1-0.1,1.5,0c-0.3,0-0.5,0-0.8,0C977.7,45,977.5,45,977.2,45z"/>
</g>
<g id="XMLID_288_">
	<path id="XMLID_302_" class="st1" d="M1148,238.4c-2.4,0-4.7-0.6-6.8-1.6l-60.9-30.5l-12.5,6.2c-0.3,0.1-0.6,0.3-0.8,0.5
		c-0.1,0.1-0.2,0.2-0.3,0.3c-0.5,0.6-0.7,1.3-0.7,2c0,0.7,0.2,1.4,0.7,2c0.1,0.1,0.2,0.2,0.3,0.3c0.2,0.2,0.5,0.4,0.8,0.5L1145,257
		c0.2,0.1,0.5,0.2,0.7,0.3c1.5,0.5,3.1,0.5,4.5,0c0.2-0.1,0.5-0.2,0.7-0.3l163.2-81.6c2.4-1.2,2.4-4.6,0-5.8l-12.5-6.2l-146.9,73.5
		C1152.7,237.8,1150.4,238.4,1148,238.4z"/>
	<path id="XMLID_301_" class="st1" d="M1315.7,143.3c-0.1-0.3-0.3-0.5-0.4-0.8c-0.3-0.4-0.6-0.7-1.1-0.9L1301,135l-18.3,9.1
		l-9.6,4.8l-118.3,59.1c-2.1,1.1-4.5,1.6-6.8,1.6c-2.4,0-4.7-0.6-6.8-1.6l-32.2-16.1l-9.6-4.8L1081,178l-13.2,6.6
		c-0.3,0.1-0.6,0.3-0.8,0.5c-0.1,0.1-0.2,0.2-0.3,0.3c-0.5,0.6-0.7,1.3-0.7,2c0,0,0,0,0,0c0,0.9,0.3,1.7,1,2.4
		c0.2,0.2,0.5,0.4,0.8,0.5l12.5,6.2l9.6,4.8l55.1,27.6c0.2,0.1,0.5,0.2,0.7,0.3c1.5,0.5,3.1,0.5,4.5,0c0.2-0.1,0.5-0.2,0.7-0.3
		l141.2-70.6l9.6-4.8l12.5-6.2c0.3-0.1,0.6-0.3,0.8-0.5c0.4-0.4,0.7-0.9,0.9-1.5c0-0.1,0.1-0.3,0.1-0.4c0-0.1,0-0.3,0-0.4
		C1316,144.1,1315.9,143.7,1315.7,143.3z"/>
	<g id="XMLID_298_">
		<path id="XMLID_300_" class="st1" d="M1315.7,114.6c-0.1-0.3-0.3-0.5-0.4-0.8c-0.3-0.4-0.6-0.7-1.1-0.9l-13.2-6.6l-19.1,9.5
			l-9.6,4.8l19.1,9.5l9.6-4.8l13.2-6.6c0.3-0.1,0.6-0.3,0.8-0.5c0.4-0.4,0.7-0.9,0.9-1.5c0-0.1,0.1-0.3,0.1-0.4c0-0.1,0-0.3,0-0.4
			C1316,115.5,1315.9,115,1315.7,114.6z"/>
		<path id="XMLID_299_" class="st1" d="M1254,129.8l-9.6,4.8l-89.6,44.8c-2.1,1.1-4.5,1.6-6.8,1.6c-2.4,0-4.7-0.6-6.8-1.6l-3.6-1.8
			l-9.6-4.8l-18.3-9.1l-9.6-4.8l-19.1-9.5l-13.2,6.6c-0.3,0.1-0.6,0.3-0.8,0.5c-0.1,0.1-0.2,0.2-0.3,0.3c-0.5,0.6-0.7,1.3-0.7,2
			c0,0,0,0,0,0c0,0.9,0.3,1.7,1,2.4c0.2,0.2,0.5,0.4,0.8,0.5l13.2,6.6l9.6,4.8v0l18.3,9.1l9.6,4.8l26.5,13.2
			c0.2,0.1,0.5,0.2,0.7,0.3c1.5,0.5,3.1,0.5,4.5,0c0.2-0.1,0.5-0.2,0.7-0.3l112.5-56.2l9.6-4.8l18.3-9.1l-19.1-9.5L1254,129.8z"/>
	</g>
	<g id="XMLID_292_">
		<path id="XMLID_297_" class="st1" d="M1231,130.9l-83,41.5c0.8,0,1.5-0.1,2.3-0.4c0.2-0.1,0.5-0.2,0.7-0.3l83-41.5
			c-0.3,0-0.5,0-0.8,0c-0.2,0-0.4,0.1-0.6,0.1c-0.4,0.1-0.7,0.2-1.1,0.3C1231.4,130.8,1231.2,130.8,1231,130.9z"/>
		<path id="XMLID_296_" class="st1" d="M1315.7,86c-0.1-0.3-0.3-0.5-0.4-0.8c-0.3-0.4-0.6-0.7-1.1-0.9l-13.2-6.6l-19.1,9.5l-9.6,4.8
			l19.1,9.5l9.6-4.8l13.2-6.6c0.3-0.1,0.6-0.3,0.8-0.5c0.4-0.4,0.7-0.9,0.9-1.5c0-0.1,0.1-0.3,0.1-0.4c0-0.1,0-0.3,0-0.4
			C1316,86.8,1315.9,86.4,1315.7,86z"/>
		<path id="XMLID_295_" class="st1" d="M1081,120.7l-13.2,6.6c-0.4,0.2-0.8,0.5-1.1,0.9c-0.5,0.6-0.7,1.3-0.7,2c0,0,0,0,0,0
			c0,0.9,0.3,1.7,1,2.4c0.2,0.2,0.5,0.4,0.8,0.5l13.2,6.6l9.6,4.8l19.1-9.5l-9.6-4.8L1081,120.7z"/>
		<polygon id="XMLID_294_" class="st1" points="1243.6,106.4 1262.7,115.9 1272.3,111.1 1291.3,101.6 1272.3,92 1253.2,101.6 		"/>
		<path id="XMLID_293_" class="st1" d="M1148,152.4c-2.4,0-4.7-0.6-6.8-1.6l-2.8-1.4l-9.6-4.8l-19.1-9.5l-19.1,9.5l19.1,9.5l9.6,4.8
			v0l18.3,9.1l7.4,3.7c0.2,0.1,0.5,0.2,0.7,0.3c0.7,0.3,1.5,0.4,2.3,0.4l83-41.5c0.2-0.1,0.4-0.2,0.5-0.2c0.4-0.1,0.7-0.3,1.1-0.3
			c0.2,0,0.4-0.1,0.6-0.1c0.3,0,0.5,0,0.8,0l10.4-5.2l18.3-9.1l-19.1-9.5l-88.8,44.4C1152.7,151.8,1150.4,152.4,1148,152.4z"/>
	</g>
	<path id="XMLID_289_" class="st0" d="M1315.7,57.3c-0.1-0.3-0.3-0.5-0.4-0.8c-0.3-0.4-0.6-0.7-1.1-0.9L1237,17
		c-0.7-0.4-1.5-0.6-2.2-0.7c-0.3,0-0.5,0-0.8,0c-0.3,0-0.5,0-0.8,0c-0.8,0.1-1.5,0.3-2.2,0.7l-163.2,81.6c-0.4,0.2-0.8,0.5-1.1,0.9
		c-0.5,0.6-0.7,1.3-0.7,2c0,0,0,0,0,0c0,0.9,0.3,1.7,1,2.4c0.2,0.2,0.5,0.4,0.8,0.5l13.2,6.6l9.6,4.8L1231,45.7
		c0.5-0.3,1.1-0.5,1.6-0.6c-0.6,0.1-1.1,0.3-1.6,0.6l-140.4,70.2l19.1,9.5l9.6,4.8L1231,74.4c0.2-0.1,0.4-0.2,0.5-0.2
		c0.4-0.1,0.7-0.3,1.1-0.3c0.2,0,0.4-0.1,0.6-0.1c0.5-0.1,1-0.1,1.5,0c-0.2,0-0.5,0-0.7,0c-0.3,0-0.5,0-0.8,0
		c-0.2,0-0.4,0.1-0.6,0.1c-0.4,0.1-0.7,0.2-1.1,0.3c-0.2,0.1-0.4,0.2-0.5,0.2l-111.7,55.8l19.1,9.5l6.6,3.3c1.9,0.9,4.1,0.9,6,0
		l80-40l12.6-6.3l19.1-9.5L1237,74.4l25.7,12.8l9.6-4.8l19.1-9.5L1237,45.7l54.4,27.2l9.6-4.8l13.2-6.6c0.3-0.1,0.6-0.3,0.8-0.5
		c0.4-0.4,0.7-0.9,0.9-1.5c0-0.1,0.1-0.3,0.1-0.4c0-0.1,0-0.3,0-0.4C1316,58.1,1315.9,57.7,1315.7,57.3z M1233.2,45
		c0.5-0.1,1-0.1,1.5,0c-0.3,0-0.5,0-0.8,0C1233.7,45,1233.5,45,1233.2,45z"/>
</g>
<g id="XMLID_273_">
	<path id="XMLID_287_" class="st1" d="M1404,238.4c-2.4,0-4.7-0.6-6.8-1.6l-60.9-30.5l-12.5,6.2c-0.3,0.1-0.6,0.3-0.8,0.5
		c-0.1,0.1-0.2,0.2-0.3,0.3c-0.5,0.6-0.7,1.3-0.7,2c0,0.7,0.2,1.4,0.7,2c0.1,0.1,0.2,0.2,0.3,0.3c0.2,0.2,0.5,0.4,0.8,0.5L1401,257
		c0.2,0.1,0.5,0.2,0.7,0.3c1.5,0.5,3.1,0.5,4.5,0c0.2-0.1,0.5-0.2,0.7-0.3l163.2-81.6c2.4-1.2,2.4-4.6,0-5.8l-12.5-6.2l-146.9,73.5
		C1408.7,237.8,1406.4,238.4,1404,238.4z"/>
	<path id="XMLID_286_" class="st1" d="M1571.7,143.3c-0.1-0.3-0.3-0.5-0.4-0.8c-0.3-0.4-0.6-0.7-1.1-0.9L1557,135l-18.3,9.1
		l-9.6,4.8l-118.3,59.1c-2.1,1.1-4.5,1.6-6.8,1.6s-4.7-0.6-6.8-1.6l-32.2-16.1l-9.6-4.8L1337,178l-13.2,6.6
		c-0.3,0.1-0.6,0.3-0.8,0.5c-0.1,0.1-0.2,0.2-0.3,0.3c-0.5,0.6-0.7,1.3-0.7,2c0,0,0,0,0,0c0,0.9,0.3,1.7,1,2.4
		c0.2,0.2,0.5,0.4,0.8,0.5l12.5,6.2l9.6,4.8l55.1,27.6c0.2,0.1,0.5,0.2,0.7,0.3c1.5,0.5,3.1,0.5,4.5,0c0.2-0.1,0.5-0.2,0.7-0.3
		l141.2-70.6l9.6-4.8l12.5-6.2c0.3-0.1,0.6-0.3,0.8-0.5c0.4-0.4,0.7-0.9,0.9-1.5c0-0.1,0.1-0.3,0.1-0.4c0-0.1,0-0.3,0-0.4
		C1572,144.1,1571.9,143.7,1571.7,143.3z"/>
	<g id="XMLID_283_">
		<path id="XMLID_285_" class="st1" d="M1571.7,114.6c-0.1-0.3-0.3-0.5-0.4-0.8c-0.3-0.4-0.6-0.7-1.1-0.9l-13.2-6.6l-19.1,9.5
			l-9.6,4.8l19.1,9.5l9.6-4.8l13.2-6.6c0.3-0.1,0.6-0.3,0.8-0.5c0.4-0.4,0.7-0.9,0.9-1.5c0-0.1,0.1-0.3,0.1-0.4c0-0.1,0-0.3,0-0.4
			C1572,115.5,1571.9,115,1571.7,114.6z"/>
		<path id="XMLID_284_" class="st1" d="M1510,129.8l-9.6,4.8l-89.6,44.8c-2.1,1.1-4.5,1.6-6.8,1.6s-4.7-0.6-6.8-1.6l-3.6-1.8
			l-9.6-4.8l-18.3-9.1l-9.6-4.8l-19.1-9.5l-13.2,6.6c-0.3,0.1-0.6,0.3-0.8,0.5c-0.1,0.1-0.2,0.2-0.3,0.3c-0.5,0.6-0.7,1.3-0.7,2
			c0,0,0,0,0,0c0,0.9,0.3,1.7,1,2.4c0.2,0.2,0.5,0.4,0.8,0.5l13.2,6.6l9.6,4.8v0l18.3,9.1l9.6,4.8l26.5,13.2
			c0.2,0.1,0.5,0.2,0.7,0.3c1.5,0.5,3.1,0.5,4.5,0c0.2-0.1,0.5-0.2,0.7-0.3l112.5-56.2l9.6-4.8l18.3-9.1l-19.1-9.5L1510,129.8z"/>
	</g>
	<g id="XMLID_277_">
		<path id="XMLID_282_" class="st1" d="M1487,130.9l-83,41.5c0.8,0,1.5-0.1,2.3-0.4c0.2-0.1,0.5-0.2,0.7-0.3l83-41.5
			c-0.3,0-0.5,0-0.8,0c-0.2,0-0.4,0.1-0.6,0.1c-0.4,0.1-0.7,0.2-1.1,0.3C1487.4,130.8,1487.2,130.8,1487,130.9z"/>
		<path id="XMLID_281_" class="st1" d="M1571.7,86c-0.1-0.3-0.3-0.5-0.4-0.8c-0.3-0.4-0.6-0.7-1.1-0.9l-13.2-6.6l-19.1,9.5l-9.6,4.8
			l19.1,9.5l9.6-4.8l13.2-6.6c0.3-0.1,0.6-0.3,0.8-0.5c0.4-0.4,0.7-0.9,0.9-1.5c0-0.1,0.1-0.3,0.1-0.4c0-0.1,0-0.3,0-0.4
			C1572,86.8,1571.9,86.4,1571.7,86z"/>
		<path id="XMLID_280_" class="st1" d="M1337,120.7l-13.2,6.6c-0.4,0.2-0.8,0.5-1.1,0.9c-0.5,0.6-0.7,1.3-0.7,2c0,0,0,0,0,0
			c0,0.9,0.3,1.7,1,2.4c0.2,0.2,0.5,0.4,0.8,0.5l13.2,6.6l9.6,4.8l19.1-9.5l-9.6-4.8L1337,120.7z"/>
		<polygon id="XMLID_279_" class="st1" points="1499.6,106.4 1518.7,115.9 1528.3,111.1 1547.3,101.6 1528.3,92 1509.2,101.6 		"/>
		<path id="XMLID_278_" class="st1" d="M1404,152.4c-2.4,0-4.7-0.6-6.8-1.6l-2.8-1.4l-9.6-4.8l-19.1-9.5l-19.1,9.5l19.1,9.5l9.6,4.8
			v0l18.3,9.1l7.4,3.7c0.2,0.1,0.5,0.2,0.7,0.3c0.7,0.3,1.5,0.4,2.3,0.4l83-41.5c0.2-0.1,0.4-0.2,0.5-0.2c0.4-0.1,0.7-0.3,1.1-0.3
			c0.2,0,0.4-0.1,0.6-0.1c0.3,0,0.5,0,0.8,0l10.4-5.2l18.3-9.1l-19.1-9.5l-88.8,44.4C1408.7,151.8,1406.4,152.4,1404,152.4z"/>
	</g>
	<path id="XMLID_274_" class="st1" d="M1571.7,57.3c-0.1-0.3-0.3-0.5-0.4-0.8c-0.3-0.4-0.6-0.7-1.1-0.9L1493,17
		c-0.7-0.4-1.5-0.6-2.2-0.7c-0.3,0-0.5,0-0.8,0c-0.3,0-0.5,0-0.8,0c-0.8,0.1-1.5,0.3-2.2,0.7l-163.2,81.6c-0.4,0.2-0.8,0.5-1.1,0.9
		c-0.5,0.6-0.7,1.3-0.7,2c0,0,0,0,0,0c0,0.9,0.3,1.7,1,2.4c0.2,0.2,0.5,0.4,0.8,0.5l13.2,6.6l9.6,4.8L1487,45.7
		c0.5-0.3,1.1-0.5,1.6-0.6c-0.6,0.1-1.1,0.3-1.6,0.6l-140.4,70.2l19.1,9.5l9.6,4.8L1487,74.4c0.2-0.1,0.4-0.2,0.5-0.2
		c0.4-0.1,0.7-0.3,1.1-0.3c0.2,0,0.4-0.1,0.6-0.1c0.5-0.1,1-0.1,1.5,0c-0.2,0-0.5,0-0.7,0c-0.3,0-0.5,0-0.8,0
		c-0.2,0-0.4,0.1-0.6,0.1c-0.4,0.1-0.7,0.2-1.1,0.3c-0.2,0.1-0.4,0.2-0.5,0.2l-111.7,55.8l19.1,9.5l6.6,3.3c1.9,0.9,4.1,0.9,6,0
		l80-40l12.6-6.3l19.1-9.5L1493,74.4l25.7,12.8l9.6-4.8l19.1-9.5L1493,45.7l54.4,27.2l9.6-4.8l13.2-6.6c0.3-0.1,0.6-0.3,0.8-0.5
		c0.4-0.4,0.7-0.9,0.9-1.5c0-0.1,0.1-0.3,0.1-0.4c0-0.1,0-0.3,0-0.4C1572,58.1,1571.9,57.7,1571.7,57.3z M1489.2,45
		c0.5-0.1,1-0.1,1.5,0c-0.3,0-0.5,0-0.8,0C1489.7,45,1489.5,45,1489.2,45z"/>
</g>
</svg>
